Iksir-Regular.ufo
<glyph name="exclam" format="2">
  <advance width="221"/>
  <unicode hex="0021"/>
  <outline>
    <contour>
      <point x="64" y="697" type="line"/>
      <point x="64" y="697" type="line"/>
      <point x="64" y="634" type="line"/>
      <point x="127" y="634" type="line"/>
      <point x="127" y="697" type="line"/>
    </contour>
    <contour>
      <point x="127" y="697" type="line"/>
      <point x="127" y="697" type="line"/>
      <point x="127" y="634" type="line"/>
      <point x="190" y="634" type="line"/>
      <point x="190" y="697" type="line"/>
    </contour>
    <contour>
      <point x="64" y="634" type="line"/>
      <point x="64" y="634" type="line"/>
      <point x="64" y="571" type="line"/>
      <point x="127" y="571" type="line"/>
      <point x="127" y="634" type="line"/>
    </contour>
    <contour>
      <point x="127" y="634" type="line"/>
      <point x="127" y="634" type="line"/>
      <point x="127" y="571" type="line"/>
      <point x="190" y="571" type="line"/>
      <point x="190" y="634" type="line"/>
    </contour>
    <contour>
      <point x="64" y="571" type="line"/>
      <point x="64" y="571" type="line"/>
      <point x="64" y="508" type="line"/>
      <point x="127" y="508" type="line"/>
      <point x="127" y="571" type="line"/>
    </contour>
    <contour>
      <point x="127" y="571" type="line"/>
      <point x="127" y="571" type="line"/>
      <point x="127" y="508" type="line"/>
      <point x="190" y="508" type="line"/>
      <point x="190" y="571" type="line"/>
    </contour>
    <contour>
      <point x="64" y="508" type="line"/>
      <point x="64" y="508" type="line"/>
      <point x="64" y="445" type="line"/>
      <point x="127" y="445" type="line"/>
      <point x="127" y="508" type="line"/>
    </contour>
    <contour>
      <point x="127" y="508" type="line"/>
      <point x="127" y="508" type="line"/>
      <point x="127" y="445" type="line"/>
      <point x="190" y="445" type="line"/>
      <point x="190" y="508" type="line"/>
    </contour>
    <contour>
      <point x="64" y="445" type="line"/>
      <point x="64" y="445" type="line"/>
      <point x="64" y="383" type="line"/>
      <point x="127" y="383" type="line"/>
      <point x="127" y="445" type="line"/>
    </contour>
    <contour>
      <point x="127" y="445" type="line"/>
      <point x="127" y="445" type="line"/>
      <point x="127" y="383" type="line"/>
      <point x="190" y="383" type="line"/>
      <point x="190" y="445" type="line"/>
    </contour>
    <contour>
      <point x="64" y="383" type="line"/>
      <point x="64" y="383" type="line"/>
      <point x="64" y="320" type="line"/>
      <point x="127" y="320" type="line"/>
      <point x="127" y="383" type="line"/>
    </contour>
    <contour>
      <point x="127" y="383" type="line"/>
      <point x="127" y="383" type="line"/>
      <point x="127" y="320" type="line"/>
      <point x="190" y="320" type="line"/>
      <point x="190" y="383" type="line"/>
    </contour>
    <contour>
      <point x="64" y="320" type="line"/>
      <point x="64" y="320" type="line"/>
      <point x="64" y="257" type="line"/>
      <point x="127" y="257" type="line"/>
      <point x="127" y="320" type="line"/>
    </contour>
    <contour>
      <point x="127" y="320" type="line"/>
      <point x="127" y="320" type="line"/>
      <point x="127" y="257" type="line"/>
      <point x="190" y="257" type="line"/>
      <point x="190" y="320" type="line"/>
    </contour>
    <contour>
      <point x="64" y="257" type="line"/>
      <point x="64" y="257" type="line"/>
      <point x="64" y="194" type="line"/>
      <point x="127" y="194" type="line"/>
      <point x="127" y="257" type="line"/>
    </contour>
    <contour>
      <point x="127" y="257" type="line"/>
      <point x="127" y="257" type="line"/>
      <point x="127" y="194" type="line"/>
      <point x="190" y="194" type="line"/>
      <point x="190" y="257" type="line"/>
    </contour>
    <contour>
      <point x="64" y="194" type="line"/>
      <point x="64" y="194" type="line"/>
      <point x="64" y="131" type="line"/>
      <point x="127" y="131" type="line"/>
      <point x="127" y="194" type="line"/>
    </contour>
    <contour>
      <point x="127" y="194" type="line"/>
      <point x="127" y="194" type="line"/>
      <point x="127" y="131" type="line"/>
      <point x="190" y="131" type="line"/>
      <point x="190" y="194" type="line"/>
    </contour>
    <contour>
      <point x="64" y="68" type="line"/>
      <point x="64" y="68" type="line"/>
      <point x="64" y="5" type="line"/>
      <point x="127" y="5" type="line"/>
      <point x="127" y="68" type="line"/>
    </contour>
    <contour>
      <point x="127" y="68" type="line"/>
      <point x="127" y="68" type="line"/>
      <point x="127" y="5" type="line"/>
      <point x="190" y="5" type="line"/>
      <point x="190" y="68" type="line"/>
    </contour>
  </outline>
</glyph>
<glyph name="quotedbl" format="2">
  <advance width="406"/>
  <unicode hex="0022"/>
  <outline>
    <contour>
      <point x="64" y="817" type="line"/>
      <point x="64" y="817" type="line"/>
      <point x="64" y="755" type="line"/>
      <point x="126" y="755" type="line"/>
      <point x="126" y="817" type="line"/>
    </contour>
    <contour>
      <point x="126" y="817" type="line"/>
      <point x="126" y="817" type="line"/>
      <point x="126" y="755" type="line"/>
      <point x="188" y="755" type="line"/>
      <point x="188" y="817" type="line"/>
    </contour>
    <contour>
      <point x="250" y="817" type="line"/>
      <point x="250" y="817" type="line"/>
      <point x="250" y="755" type="line"/>
      <point x="313" y="755" type="line"/>
      <point x="313" y="817" type="line"/>
    </contour>
    <contour>
      <point x="313" y="817" type="line"/>
      <point x="313" y="817" type="line"/>
      <point x="313" y="755" type="line"/>
      <point x="375" y="755" type="line"/>
      <point x="375" y="817" type="line"/>
    </contour>
    <contour>
      <point x="64" y="755" type="line"/>
      <point x="64" y="755" type="line"/>
      <point x="64" y="693" type="line"/>
      <point x="126" y="693" type="line"/>
      <point x="126" y="755" type="line"/>
    </contour>
    <contour>
      <point x="126" y="755" type="line"/>
      <point x="126" y="755" type="line"/>
      <point x="126" y="693" type="line"/>
      <point x="188" y="693" type="line"/>
      <point x="188" y="755" type="line"/>
    </contour>
    <contour>
      <point x="250" y="755" type="line"/>
      <point x="250" y="755" type="line"/>
      <point x="250" y="693" type="line"/>
      <point x="313" y="693" type="line"/>
      <point x="313" y="755" type="line"/>
    </contour>
    <contour>
      <point x="313" y="755" type="line"/>
      <point x="313" y="755" type="line"/>
      <point x="313" y="693" type="line"/>
      <point x="375" y="693" type="line"/>
      <point x="375" y="755" type="line"/>
    </contour>
    <contour>
      <point x="64" y="693" type="line"/>
      <point x="64" y="693" type="line"/>
      <point x="64" y="631" type="line"/>
      <point x="126" y="631" type="line"/>
      <point x="126" y="693" type="line"/>
    </contour>
    <contour>
      <point x="126" y="693" type="line"/>
      <point x="126" y="693" type="line"/>
      <point x="126" y="631" type="line"/>
      <point x="188" y="631" type="line"/>
      <point x="188" y="693" type="line"/>
    </contour>
    <contour>
      <point x="250" y="693" type="line"/>
      <point x="250" y="693" type="line"/>
      <point x="250" y="631" type="line"/>
      <point x="313" y="631" type="line"/>
      <point x="313" y="693" type="line"/>
    </contour>
    <contour>
      <point x="313" y="693" type="line"/>
      <point x="313" y="693" type="line"/>
      <point x="313" y="631" type="line"/>
      <point x="375" y="631" type="line"/>
      <point x="375" y="693" type="line"/>
    </contour>
    <contour>
      <point x="64" y="631" type="line"/>
      <point x="64" y="631" type="line"/>
      <point x="64" y="569" type="line"/>
      <point x="126" y="569" type="line"/>
      <point x="126" y="631" type="line"/>
    </contour>
    <contour>
      <point x="126" y="631" type="line"/>
      <point x="126" y="631" type="line"/>
      <point x="126" y="569" type="line"/>
      <point x="188" y="569" type="line"/>
      <point x="188" y="631" type="line"/>
    </contour>
    <contour>
      <point x="250" y="631" type="line"/>
      <point x="250" y="631" type="line"/>
      <point x="250" y="569" type="line"/>
      <point x="313" y="569" type="line"/>
      <point x="313" y="631" type="line"/>
    </contour>
    <contour>
      <point x="313" y="631" type="line"/>
      <point x="313" y="631" type="line"/>
      <point x="313" y="569" type="line"/>
      <point x="375" y="569" type="line"/>
      <point x="375" y="631" type="line"/>
    </contour>
  </outline>
</glyph>
<glyph name="numbersign" format="2">
  <advance width="724"/>
  <unicode hex="0023"/>
  <outline>
    <contour>
      <point x="315" y="696" type="line"/>
      <point x="315" y="696" type="line"/>
      <point x="315" y="633" type="line"/>
      <point x="378" y="633" type="line"/>
      <point x="378" y="696" type="line"/>
    </contour>
    <contour>
      <point x="378" y="696" type="line"/>
      <point x="378" y="696" type="line"/>
      <point x="378" y="633" type="line"/>
      <point x="441" y="633" type="line"/>
      <point x="441" y="696" type="line"/>
    </contour>
    <contour>
      <point x="504" y="696" type="line"/>
      <point x="504" y="696" type="line"/>
      <point x="504" y="633" type="line"/>
      <point x="567" y="633" type="line"/>
      <point x="567" y="696" type="line"/>
    </contour>
    <contour>
      <point x="567" y="696" type="line"/>
      <point x="567" y="696" type="line"/>
      <point x="567" y="633" type="line"/>
      <point x="630" y="633" type="line"/>
      <point x="630" y="696" type="line"/>
    </contour>
    <contour>
      <point x="315" y="633" type="line"/>
      <point x="315" y="633" type="line"/>
      <point x="315" y="570" type="line"/>
      <point x="378" y="570" type="line"/>
      <point x="378" y="633" type="line"/>
    </contour>
    <contour>
      <point x="378" y="633" type="line"/>
      <point x="378" y="633" type="line"/>
      <point x="378" y="570" type="line"/>
      <point x="441" y="570" type="line"/>
      <point x="441" y="633" type="line"/>
    </contour>
    <contour>
      <point x="504" y="633" type="line"/>
      <point x="504" y="633" type="line"/>
      <point x="504" y="570" type="line"/>
      <point x="567" y="570" type="line"/>
      <point x="567" y="633" type="line"/>
    </contour>
    <contour>
      <point x="567" y="633" type="line"/>
      <point x="567" y="633" type="line"/>
      <point x="567" y="570" type="line"/>
      <point x="630" y="570" type="line"/>
      <point x="630" y="633" type="line"/>
    </contour>
    <contour>
      <point x="252" y="570" type="line"/>
      <point x="252" y="570" type="line"/>
      <point x="252" y="507" type="line"/>
      <point x="315" y="507" type="line"/>
      <point x="315" y="570" type="line"/>
    </contour>
    <contour>
      <point x="315" y="570" type="line"/>
      <point x="315" y="570" type="line"/>
      <point x="315" y="507" type="line"/>
      <point x="378" y="507" type="line"/>
      <point x="378" y="570" type="line"/>
    </contour>
    <contour>
      <point x="441" y="570" type="line"/>
      <point x="441" y="570" type="line"/>
      <point x="441" y="507" type="line"/>
      <point x="504" y="507" type="line"/>
      <point x="504" y="570" type="line"/>
    </contour>
    <contour>
      <point x="504" y="570" type="line"/>
      <point x="504" y="570" type="line"/>
      <point x="504" y="507" type="line"/>
      <point x="567" y="507" type="line"/>
      <point x="567" y="570" type="line"/>
    </contour>
    <contour>
      <point x="63" y="507" type="line"/>
      <point x="63" y="507" type="line"/>
      <point x="63" y="444" type="line"/>
      <point x="126" y="444" type="line"/>
      <point x="126" y="507" type="line"/>
    </contour>
    <contour>
      <point x="126" y="507" type="line"/>
      <point x="126" y="507" type="line"/>
      <point x="126" y="444" type="line"/>
      <point x="189" y="444" type="line"/>
      <point x="189" y="507" type="line"/>
    </contour>
    <contour>
      <point x="189" y="507" type="line"/>
      <point x="189" y="507" type="line"/>
      <point x="189" y="444" type="line"/>
      <point x="252" y="444" type="line"/>
      <point x="252" y="507" type="line"/>
    </contour>
    <contour>
      <point x="252" y="507" type="line"/>
      <point x="252" y="507" type="line"/>
      <point x="252" y="444" type="line"/>
      <point x="315" y="444" type="line"/>
      <point x="315" y="507" type="line"/>
    </contour>
    <contour>
      <point x="315" y="507" type="line"/>
      <point x="315" y="507" type="line"/>
      <point x="315" y="444" type="line"/>
      <point x="378" y="444" type="line"/>
      <point x="378" y="507" type="line"/>
    </contour>
    <contour>
      <point x="378" y="507" type="line"/>
      <point x="378" y="507" type="line"/>
      <point x="378" y="444" type="line"/>
      <point x="441" y="444" type="line"/>
      <point x="441" y="507" type="line"/>
    </contour>
    <contour>
      <point x="441" y="507" type="line"/>
      <point x="441" y="507" type="line"/>
      <point x="441" y="444" type="line"/>
      <point x="504" y="444" type="line"/>
      <point x="504" y="507" type="line"/>
    </contour>
    <contour>
      <point x="504" y="507" type="line"/>
      <point x="504" y="507" type="line"/>
      <point x="504" y="444" type="line"/>
      <point x="567" y="444" type="line"/>
      <point x="567" y="507" type="line"/>
    </contour>
    <contour>
      <point x="567" y="507" type="line"/>
      <point x="567" y="507" type="line"/>
      <point x="567" y="444" type="line"/>
      <point x="630" y="444" type="line"/>
      <point x="630" y="507" type="line"/>
    </contour>
    <contour>
      <point x="630" y="507" type="line"/>
      <point x="630" y="507" type="line"/>
      <point x="630" y="444" type="line"/>
      <point x="693" y="444" type="line"/>
      <point x="693" y="507" type="line"/>
    </contour>
    <contour>
      <point x="252" y="444" type="line"/>
      <point x="252" y="444" type="line"/>
      <point x="252" y="381" type="line"/>
      <point x="315" y="381" type="line"/>
      <point x="315" y="444" type="line"/>
    </contour>
    <contour>
      <point x="315" y="444" type="line"/>
      <point x="315" y="444" type="line"/>
      <point x="315" y="381" type="line"/>
      <point x="378" y="381" type="line"/>
      <point x="378" y="444" type="line"/>
    </contour>
    <contour>
      <point x="441" y="444" type="line"/>
      <point x="441" y="444" type="line"/>
      <point x="441" y="381" type="line"/>
      <point x="504" y="381" type="line"/>
      <point x="504" y="444" type="line"/>
    </contour>
    <contour>
      <point x="504" y="444" type="line"/>
      <point x="504" y="444" type="line"/>
      <point x="504" y="381" type="line"/>
      <point x="567" y="381" type="line"/>
      <point x="567" y="444" type="line"/>
    </contour>
    <contour>
      <point x="189" y="381" type="line"/>
      <point x="189" y="381" type="line"/>
      <point x="189" y="318" type="line"/>
      <point x="252" y="318" type="line"/>
      <point x="252" y="381" type="line"/>
    </contour>
    <contour>
      <point x="252" y="381" type="line"/>
      <point x="252" y="381" type="line"/>
      <point x="252" y="318" type="line"/>
      <point x="315" y="318" type="line"/>
      <point x="315" y="381" type="line"/>
    </contour>
    <contour>
      <point x="378" y="381" type="line"/>
      <point x="378" y="381" type="line"/>
      <point x="378" y="318" type="line"/>
      <point x="441" y="318" type="line"/>
      <point x="441" y="381" type="line"/>
    </contour>
    <contour>
      <point x="441" y="381" type="line"/>
      <point x="441" y="381" type="line"/>
      <point x="441" y="318" type="line"/>
      <point x="504" y="318" type="line"/>
      <point x="504" y="381" type="line"/>
    </contour>
    <contour>
      <point x="189" y="318" type="line"/>
      <point x="189" y="318" type="line"/>
      <point x="189" y="255" type="line"/>
      <point x="252" y="255" type="line"/>
      <point x="252" y="318" type="line"/>
    </contour>
    <contour>
      <point x="252" y="318" type="line"/>
      <point x="252" y="318" type="line"/>
      <point x="252" y="255" type="line"/>
      <point x="315" y="255" type="line"/>
      <point x="315" y="318" type="line"/>
    </contour>
    <contour>
      <point x="378" y="318" type="line"/>
      <point x="378" y="318" type="line"/>
      <point x="378" y="255" type="line"/>
      <point x="441" y="255" type="line"/>
      <point x="441" y="318" type="line"/>
    </contour>
    <contour>
      <point x="441" y="318" type="line"/>
      <point x="441" y="318" type="line"/>
      <point x="441" y="255" type="line"/>
      <point x="504" y="255" type="line"/>
      <point x="504" y="318" type="line"/>
    </contour>
    <contour>
      <point x="63" y="255" type="line"/>
      <point x="63" y="255" type="line"/>
      <point x="63" y="192" type="line"/>
      <point x="126" y="192" type="line"/>
      <point x="126" y="255" type="line"/>
    </contour>
    <contour>
      <point x="126" y="255" type="line"/>
      <point x="126" y="255" type="line"/>
      <point x="126" y="192" type="line"/>
      <point x="189" y="192" type="line"/>
      <point x="189" y="255" type="line"/>
    </contour>
    <contour>
      <point x="189" y="255" type="line"/>
      <point x="189" y="255" type="line"/>
      <point x="189" y="192" type="line"/>
      <point x="252" y="192" type="line"/>
      <point x="252" y="255" type="line"/>
    </contour>
    <contour>
      <point x="252" y="255" type="line"/>
      <point x="252" y="255" type="line"/>
      <point x="252" y="192" type="line"/>
      <point x="315" y="192" type="line"/>
      <point x="315" y="255" type="line"/>
    </contour>
    <contour>
      <point x="315" y="255" type="line"/>
      <point x="315" y="255" type="line"/>
      <point x="315" y="192" type="line"/>
      <point x="378" y="192" type="line"/>
      <point x="378" y="255" type="line"/>
    </contour>
    <contour>
      <point x="378" y="255" type="line"/>
      <point x="378" y="255" type="line"/>
      <point x="378" y="192" type="line"/>
      <point x="441" y="192" type="line"/>
      <point x="441" y="255" type="line"/>
    </contour>
    <contour>
      <point x="441" y="255" type="line"/>
      <point x="441" y="255" type="line"/>
      <point x="441" y="192" type="line"/>
      <point x="504" y="192" type="line"/>
      <point x="504" y="255" type="line"/>
    </contour>
    <contour>
      <point x="504" y="255" type="line"/>
      <point x="504" y="255" type="line"/>
      <point x="504" y="192" type="line"/>
      <point x="567" y="192" type="line"/>
      <point x="567" y="255" type="line"/>
    </contour>
    <contour>
      <point x="567" y="255" type="line"/>
      <point x="567" y="255" type="line"/>
      <point x="567" y="192" type="line"/>
      <point x="630" y="192" type="line"/>
      <point x="630" y="255" type="line"/>
    </contour>
    <contour>
      <point x="630" y="255" type="line"/>
      <point x="630" y="255" type="line"/>
      <point x="630" y="192" type="line"/>
      <point x="693" y="192" type="line"/>
      <point x="693" y="255" type="line"/>
    </contour>
    <contour>
      <point x="189" y="192" type="line"/>
      <point x="189" y="192" type="line"/>
      <point x="189" y="129" type="line"/>
      <point x="252" y="129" type="line"/>
      <point x="252" y="192" type="line"/>
    </contour>
    <contour>
      <point x="252" y="192" type="line"/>
      <point x="252" y="192" type="line"/>
      <point x="252" y="129" type="line"/>
      <point x="315" y="129" type="line"/>
      <point x="315" y="192" type="line"/>
    </contour>
    <contour>
      <point x="378" y="192" type="line"/>
      <point x="378" y="192" type="line"/>
      <point x="378" y="129" type="line"/>
      <point x="441" y="129" type="line"/>
      <point x="441" y="192" type="line"/>
    </contour>
    <contour>
      <point x="441" y="192" type="line"/>
      <point x="441" y="192" type="line"/>
      <point x="441" y="129" type="line"/>
      <point x="504" y="129" type="line"/>
      <point x="504" y="192" type="line"/>
    </contour>
    <contour>
      <point x="126" y="129" type="line"/>
      <point x="126" y="129" type="line"/>
      <point x="126" y="66" type="line"/>
      <point x="189" y="66" type="line"/>
      <point x="189" y="129" type="line"/>
    </contour>
    <contour>
      <point x="189" y="129" type="line"/>
      <point x="189" y="129" type="line"/>
      <point x="189" y="66" type="line"/>
      <point x="252" y="66" type="line"/>
      <point x="252" y="129" type="line"/>
    </contour>
    <contour>
      <point x="315" y="129" type="line"/>
      <point x="315" y="129" type="line"/>
      <point x="315" y="66" type="line"/>
      <point x="378" y="66" type="line"/>
      <point x="378" y="129" type="line"/>
    </contour>
    <contour>
      <point x="378" y="129" type="line"/>
      <point x="378" y="129" type="line"/>
      <point x="378" y="66" type="line"/>
      <point x="441" y="66" type="line"/>
      <point x="441" y="129" type="line"/>
    </contour>
    <contour>
      <point x="126" y="66" type="line"/>
      <point x="126" y="66" type="line"/>
      <point x="126" y="3" type="line"/>
      <point x="189" y="3" type="line"/>
      <point x="189" y="66" type="line"/>
    </contour>
    <contour>
      <point x="189" y="66" type="line"/>
      <point x="189" y="66" type="line"/>
      <point x="189" y="3" type="line"/>
      <point x="252" y="3" type="line"/>
      <point x="252" y="66" type="line"/>
    </contour>
    <contour>
      <point x="315" y="66" type="line"/>
      <point x="315" y="66" type="line"/>
      <point x="315" y="3" type="line"/>
      <point x="378" y="3" type="line"/>
      <point x="378" y="66" type="line"/>
    </contour>
    <contour>
      <point x="378" y="66" type="line"/>
      <point x="378" y="66" type="line"/>
      <point x="378" y="3" type="line"/>
      <point x="441" y="3" type="line"/>
      <point x="441" y="66" type="line"/>
    </contour>
  </outline>
</glyph>
<glyph name="dollar" format="2">
  <advance width="557"/>
  <unicode hex="0024"/>
  <outline>
    <contour>
      <point x="237" y="698" type="line"/>
      <point x="237" y="698" type="line"/>
      <point x="237" y="640" type="line"/>
      <point x="295" y="640" type="line"/>
      <point x="295" y="698" type="line"/>
    </contour>
    <contour>
      <point x="295" y="698" type="line"/>
      <point x="295" y="698" type="line"/>
      <point x="295" y="640" type="line"/>
      <point x="353" y="640" type="line"/>
      <point x="353" y="698" type="line"/>
    </contour>
    <contour>
      <point x="122" y="640" type="line"/>
      <point x="122" y="640" type="line"/>
      <point x="122" y="582" type="line"/>
      <point x="180" y="582" type="line"/>
      <point x="180" y="640" type="line"/>
    </contour>
    <contour>
      <point x="180" y="640" type="line"/>
      <point x="180" y="640" type="line"/>
      <point x="180" y="582" type="line"/>
      <point x="237" y="582" type="line"/>
      <point x="237" y="640" type="line"/>
    </contour>
    <contour>
      <point x="237" y="640" type="line"/>
      <point x="237" y="640" type="line"/>
      <point x="237" y="582" type="line"/>
      <point x="295" y="582" type="line"/>
      <point x="295" y="640" type="line"/>
    </contour>
    <contour>
      <point x="295" y="640" type="line"/>
      <point x="295" y="640" type="line"/>
      <point x="295" y="582" type="line"/>
      <point x="353" y="582" type="line"/>
      <point x="353" y="640" type="line"/>
    </contour>
    <contour>
      <point x="353" y="640" type="line"/>
      <point x="353" y="640" type="line"/>
      <point x="353" y="582" type="line"/>
      <point x="411" y="582" type="line"/>
      <point x="411" y="640" type="line"/>
    </contour>
    <contour>
      <point x="411" y="640" type="line"/>
      <point x="411" y="640" type="line"/>
      <point x="411" y="582" type="line"/>
      <point x="469" y="582" type="line"/>
      <point x="469" y="640" type="line"/>
    </contour>
    <contour>
      <point x="64" y="582" type="line"/>
      <point x="64" y="582" type="line"/>
      <point x="64" y="524" type="line"/>
      <point x="122" y="524" type="line"/>
      <point x="122" y="582" type="line"/>
    </contour>
    <contour>
      <point x="122" y="582" type="line"/>
      <point x="122" y="582" type="line"/>
      <point x="122" y="524" type="line"/>
      <point x="180" y="524" type="line"/>
      <point x="180" y="582" type="line"/>
    </contour>
    <contour>
      <point x="237" y="582" type="line"/>
      <point x="237" y="582" type="line"/>
      <point x="237" y="524" type="line"/>
      <point x="295" y="524" type="line"/>
      <point x="295" y="582" type="line"/>
    </contour>
    <contour>
      <point x="295" y="582" type="line"/>
      <point x="295" y="582" type="line"/>
      <point x="295" y="524" type="line"/>
      <point x="353" y="524" type="line"/>
      <point x="353" y="582" type="line"/>
    </contour>
    <contour>
      <point x="353" y="582" type="line"/>
      <point x="353" y="582" type="line"/>
      <point x="353" y="524" type="line"/>
      <point x="411" y="524" type="line"/>
      <point x="411" y="582" type="line"/>
    </contour>
    <contour>
      <point x="411" y="582" type="line"/>
      <point x="411" y="582" type="line"/>
      <point x="411" y="524" type="line"/>
      <point x="469" y="524" type="line"/>
      <point x="469" y="582" type="line"/>
    </contour>
    <contour>
      <point x="469" y="582" type="line"/>
      <point x="469" y="582" type="line"/>
      <point x="469" y="524" type="line"/>
      <point x="526" y="524" type="line"/>
      <point x="526" y="582" type="line"/>
    </contour>
    <contour>
      <point x="64" y="524" type="line"/>
      <point x="64" y="524" type="line"/>
      <point x="64" y="466" type="line"/>
      <point x="122" y="466" type="line"/>
      <point x="122" y="524" type="line"/>
    </contour>
    <contour>
      <point x="122" y="524" type="line"/>
      <point x="122" y="524" type="line"/>
      <point x="122" y="466" type="line"/>
      <point x="180" y="466" type="line"/>
      <point x="180" y="524" type="line"/>
    </contour>
    <contour>
      <point x="237" y="524" type="line"/>
      <point x="237" y="524" type="line"/>
      <point x="237" y="466" type="line"/>
      <point x="295" y="466" type="line"/>
      <point x="295" y="524" type="line"/>
    </contour>
    <contour>
      <point x="295" y="524" type="line"/>
      <point x="295" y="524" type="line"/>
      <point x="295" y="466" type="line"/>
      <point x="353" y="466" type="line"/>
      <point x="353" y="524" type="line"/>
    </contour>
    <contour>
      <point x="411" y="524" type="line"/>
      <point x="411" y="524" type="line"/>
      <point x="411" y="466" type="line"/>
      <point x="469" y="466" type="line"/>
      <point x="469" y="524" type="line"/>
    </contour>
    <contour>
      <point x="469" y="524" type="line"/>
      <point x="469" y="524" type="line"/>
      <point x="469" y="466" type="line"/>
      <point x="526" y="466" type="line"/>
      <point x="526" y="524" type="line"/>
    </contour>
    <contour>
      <point x="64" y="466" type="line"/>
      <point x="64" y="466" type="line"/>
      <point x="64" y="409" type="line"/>
      <point x="122" y="409" type="line"/>
      <point x="122" y="466" type="line"/>
    </contour>
    <contour>
      <point x="122" y="466" type="line"/>
      <point x="122" y="466" type="line"/>
      <point x="122" y="409" type="line"/>
      <point x="180" y="409" type="line"/>
      <point x="180" y="466" type="line"/>
    </contour>
    <contour>
      <point x="237" y="466" type="line"/>
      <point x="237" y="466" type="line"/>
      <point x="237" y="409" type="line"/>
      <point x="295" y="409" type="line"/>
      <point x="295" y="466" type="line"/>
    </contour>
    <contour>
      <point x="295" y="466" type="line"/>
      <point x="295" y="466" type="line"/>
      <point x="295" y="409" type="line"/>
      <point x="353" y="409" type="line"/>
      <point x="353" y="466" type="line"/>
    </contour>
    <contour>
      <point x="122" y="409" type="line"/>
      <point x="122" y="409" type="line"/>
      <point x="122" y="351" type="line"/>
      <point x="180" y="351" type="line"/>
      <point x="180" y="409" type="line"/>
    </contour>
    <contour>
      <point x="180" y="409" type="line"/>
      <point x="180" y="409" type="line"/>
      <point x="180" y="351" type="line"/>
      <point x="237" y="351" type="line"/>
      <point x="237" y="409" type="line"/>
    </contour>
    <contour>
      <point x="237" y="409" type="line"/>
      <point x="237" y="409" type="line"/>
      <point x="237" y="351" type="line"/>
      <point x="295" y="351" type="line"/>
      <point x="295" y="409" type="line"/>
    </contour>
    <contour>
      <point x="295" y="409" type="line"/>
      <point x="295" y="409" type="line"/>
      <point x="295" y="351" type="line"/>
      <point x="353" y="351" type="line"/>
      <point x="353" y="409" type="line"/>
    </contour>
    <contour>
      <point x="237" y="351" type="line"/>
      <point x="237" y="351" type="line"/>
      <point x="237" y="293" type="line"/>
      <point x="295" y="293" type="line"/>
      <point x="295" y="351" type="line"/>
    </contour>
    <contour>
      <point x="295" y="351" type="line"/>
      <point x="295" y="351" type="line"/>
      <point x="295" y="293" type="line"/>
      <point x="353" y="293" type="line"/>
      <point x="353" y="351" type="line"/>
    </contour>
    <contour>
      <point x="353" y="351" type="line"/>
      <point x="353" y="351" type="line"/>
      <point x="353" y="293" type="line"/>
      <point x="411" y="293" type="line"/>
      <point x="411" y="351" type="line"/>
    </contour>
    <contour>
      <point x="411" y="351" type="line"/>
      <point x="411" y="351" type="line"/>
      <point x="411" y="293" type="line"/>
      <point x="469" y="293" type="line"/>
      <point x="469" y="351" type="line"/>
    </contour>
    <contour>
      <point x="237" y="293" type="line"/>
      <point x="237" y="293" type="line"/>
      <point x="237" y="235" type="line"/>
      <point x="295" y="235" type="line"/>
      <point x="295" y="293" type="line"/>
    </contour>
    <contour>
      <point x="295" y="293" type="line"/>
      <point x="295" y="293" type="line"/>
      <point x="295" y="235" type="line"/>
      <point x="353" y="235" type="line"/>
      <point x="353" y="293" type="line"/>
    </contour>
    <contour>
      <point x="411" y="293" type="line"/>
      <point x="411" y="293" type="line"/>
      <point x="411" y="235" type="line"/>
      <point x="469" y="235" type="line"/>
      <point x="469" y="293" type="line"/>
    </contour>
    <contour>
      <point x="469" y="293" type="line"/>
      <point x="469" y="293" type="line"/>
      <point x="469" y="235" type="line"/>
      <point x="526" y="235" type="line"/>
      <point x="526" y="293" type="line"/>
    </contour>
    <contour>
      <point x="64" y="235" type="line"/>
      <point x="64" y="235" type="line"/>
      <point x="64" y="177" type="line"/>
      <point x="122" y="177" type="line"/>
      <point x="122" y="235" type="line"/>
    </contour>
    <contour>
      <point x="122" y="235" type="line"/>
      <point x="122" y="235" type="line"/>
      <point x="122" y="177" type="line"/>
      <point x="180" y="177" type="line"/>
      <point x="180" y="235" type="line"/>
    </contour>
    <contour>
      <point x="237" y="235" type="line"/>
      <point x="237" y="235" type="line"/>
      <point x="237" y="177" type="line"/>
      <point x="295" y="177" type="line"/>
      <point x="295" y="235" type="line"/>
    </contour>
    <contour>
      <point x="295" y="235" type="line"/>
      <point x="295" y="235" type="line"/>
      <point x="295" y="177" type="line"/>
      <point x="353" y="177" type="line"/>
      <point x="353" y="235" type="line"/>
    </contour>
    <contour>
      <point x="411" y="235" type="line"/>
      <point x="411" y="235" type="line"/>
      <point x="411" y="177" type="line"/>
      <point x="469" y="177" type="line"/>
      <point x="469" y="235" type="line"/>
    </contour>
    <contour>
      <point x="469" y="235" type="line"/>
      <point x="469" y="235" type="line"/>
      <point x="469" y="177" type="line"/>
      <point x="526" y="177" type="line"/>
      <point x="526" y="235" type="line"/>
    </contour>
    <contour>
      <point x="64" y="177" type="line"/>
      <point x="64" y="177" type="line"/>
      <point x="64" y="120" type="line"/>
      <point x="122" y="120" type="line"/>
      <point x="122" y="177" type="line"/>
    </contour>
    <contour>
      <point x="122" y="177" type="line"/>
      <point x="122" y="177" type="line"/>
      <point x="122" y="120" type="line"/>
      <point x="180" y="120" type="line"/>
      <point x="180" y="177" type="line"/>
    </contour>
    <contour>
      <point x="237" y="177" type="line"/>
      <point x="237" y="177" type="line"/>
      <point x="237" y="120" type="line"/>
      <point x="295" y="120" type="line"/>
      <point x="295" y="177" type="line"/>
    </contour>
    <contour>
      <point x="295" y="177" type="line"/>
      <point x="295" y="177" type="line"/>
      <point x="295" y="120" type="line"/>
      <point x="353" y="120" type="line"/>
      <point x="353" y="177" type="line"/>
    </contour>
    <contour>
      <point x="411" y="177" type="line"/>
      <point x="411" y="177" type="line"/>
      <point x="411" y="120" type="line"/>
      <point x="469" y="120" type="line"/>
      <point x="469" y="177" type="line"/>
    </contour>
    <contour>
      <point x="469" y="177" type="line"/>
      <point x="469" y="177" type="line"/>
      <point x="469" y="120" type="line"/>
      <point x="526" y="120" type="line"/>
      <point x="526" y="177" type="line"/>
    </contour>
    <contour>
      <point x="122" y="120" type="line"/>
      <point x="122" y="120" type="line"/>
      <point x="122" y="62" type="line"/>
      <point x="180" y="62" type="line"/>
      <point x="180" y="120" type="line"/>
    </contour>
    <contour>
      <point x="180" y="120" type="line"/>
      <point x="180" y="120" type="line"/>
      <point x="180" y="62" type="line"/>
      <point x="237" y="62" type="line"/>
      <point x="237" y="120" type="line"/>
    </contour>
    <contour>
      <point x="237" y="120" type="line"/>
      <point x="237" y="120" type="line"/>
      <point x="237" y="62" type="line"/>
      <point x="295" y="62" type="line"/>
      <point x="295" y="120" type="line"/>
    </contour>
    <contour>
      <point x="295" y="120" type="line"/>
      <point x="295" y="120" type="line"/>
      <point x="295" y="62" type="line"/>
      <point x="353" y="62" type="line"/>
      <point x="353" y="120" type="line"/>
    </contour>
    <contour>
      <point x="353" y="120" type="line"/>
      <point x="353" y="120" type="line"/>
      <point x="353" y="62" type="line"/>
      <point x="411" y="62" type="line"/>
      <point x="411" y="120" type="line"/>
    </contour>
    <contour>
      <point x="411" y="120" type="line"/>
      <point x="411" y="120" type="line"/>
      <point x="411" y="62" type="line"/>
      <point x="469" y="62" type="line"/>
      <point x="469" y="120" type="line"/>
    </contour>
    <contour>
      <point x="237" y="62" type="line"/>
      <point x="237" y="62" type="line"/>
      <point x="237" y="4" type="line"/>
      <point x="295" y="4" type="line"/>
      <point x="295" y="62" type="line"/>
    </contour>
    <contour>
      <point x="295" y="62" type="line"/>
      <point x="295" y="62" type="line"/>
      <point x="295" y="4" type="line"/>
      <point x="353" y="4" type="line"/>
      <point x="353" y="62" type="line"/>
    </contour>
  </outline>
</glyph>
<glyph name="percent" format="2">
  <advance width="976"/>
  <unicode hex="0025"/>
  <outline>
    <contour>
      <point x="126" y="697" type="line"/>
      <point x="126" y="697" type="line"/>
      <point x="126" y="634" type="line"/>
      <point x="189" y="634" type="line"/>
      <point x="189" y="697" type="line"/>
    </contour>
    <contour>
      <point x="189" y="697" type="line"/>
      <point x="189" y="697" type="line"/>
      <point x="189" y="634" type="line"/>
      <point x="252" y="634" type="line"/>
      <point x="252" y="697" type="line"/>
    </contour>
    <contour>
      <point x="252" y="697" type="line"/>
      <point x="252" y="697" type="line"/>
      <point x="252" y="634" type="line"/>
      <point x="315" y="634" type="line"/>
      <point x="315" y="697" type="line"/>
    </contour>
    <contour>
      <point x="315" y="697" type="line"/>
      <point x="315" y="697" type="line"/>
      <point x="315" y="634" type="line"/>
      <point x="378" y="634" type="line"/>
      <point x="378" y="697" type="line"/>
    </contour>
    <contour>
      <point x="630" y="697" type="line"/>
      <point x="630" y="697" type="line"/>
      <point x="630" y="634" type="line"/>
      <point x="693" y="634" type="line"/>
      <point x="693" y="697" type="line"/>
    </contour>
    <contour>
      <point x="693" y="697" type="line"/>
      <point x="693" y="697" type="line"/>
      <point x="693" y="634" type="line"/>
      <point x="756" y="634" type="line"/>
      <point x="756" y="697" type="line"/>
    </contour>
    <contour>
      <point x="63" y="634" type="line"/>
      <point x="63" y="634" type="line"/>
      <point x="63" y="571" type="line"/>
      <point x="126" y="571" type="line"/>
      <point x="126" y="634" type="line"/>
    </contour>
    <contour>
      <point x="126" y="634" type="line"/>
      <point x="126" y="634" type="line"/>
      <point x="126" y="571" type="line"/>
      <point x="189" y="571" type="line"/>
      <point x="189" y="634" type="line"/>
    </contour>
    <contour>
      <point x="315" y="634" type="line"/>
      <point x="315" y="634" type="line"/>
      <point x="315" y="571" type="line"/>
      <point x="378" y="571" type="line"/>
      <point x="378" y="634" type="line"/>
    </contour>
    <contour>
      <point x="378" y="634" type="line"/>
      <point x="378" y="634" type="line"/>
      <point x="378" y="571" type="line"/>
      <point x="441" y="571" type="line"/>
      <point x="441" y="634" type="line"/>
    </contour>
    <contour>
      <point x="567" y="634" type="line"/>
      <point x="567" y="634" type="line"/>
      <point x="567" y="571" type="line"/>
      <point x="630" y="571" type="line"/>
      <point x="630" y="634" type="line"/>
    </contour>
    <contour>
      <point x="630" y="634" type="line"/>
      <point x="630" y="634" type="line"/>
      <point x="630" y="571" type="line"/>
      <point x="693" y="571" type="line"/>
      <point x="693" y="634" type="line"/>
    </contour>
    <contour>
      <point x="63" y="571" type="line"/>
      <point x="63" y="571" type="line"/>
      <point x="63" y="508" type="line"/>
      <point x="126" y="508" type="line"/>
      <point x="126" y="571" type="line"/>
    </contour>
    <contour>
      <point x="126" y="571" type="line"/>
      <point x="126" y="571" type="line"/>
      <point x="126" y="508" type="line"/>
      <point x="189" y="508" type="line"/>
      <point x="189" y="571" type="line"/>
    </contour>
    <contour>
      <point x="315" y="571" type="line"/>
      <point x="315" y="571" type="line"/>
      <point x="315" y="508" type="line"/>
      <point x="378" y="508" type="line"/>
      <point x="378" y="571" type="line"/>
    </contour>
    <contour>
      <point x="378" y="571" type="line"/>
      <point x="378" y="571" type="line"/>
      <point x="378" y="508" type="line"/>
      <point x="441" y="508" type="line"/>
      <point x="441" y="571" type="line"/>
    </contour>
    <contour>
      <point x="567" y="571" type="line"/>
      <point x="567" y="571" type="line"/>
      <point x="567" y="508" type="line"/>
      <point x="630" y="508" type="line"/>
      <point x="630" y="571" type="line"/>
    </contour>
    <contour>
      <point x="630" y="571" type="line"/>
      <point x="630" y="571" type="line"/>
      <point x="630" y="508" type="line"/>
      <point x="693" y="508" type="line"/>
      <point x="693" y="571" type="line"/>
    </contour>
    <contour>
      <point x="63" y="508" type="line"/>
      <point x="63" y="508" type="line"/>
      <point x="63" y="445" type="line"/>
      <point x="126" y="445" type="line"/>
      <point x="126" y="508" type="line"/>
    </contour>
    <contour>
      <point x="126" y="508" type="line"/>
      <point x="126" y="508" type="line"/>
      <point x="126" y="445" type="line"/>
      <point x="189" y="445" type="line"/>
      <point x="189" y="508" type="line"/>
    </contour>
    <contour>
      <point x="315" y="508" type="line"/>
      <point x="315" y="508" type="line"/>
      <point x="315" y="445" type="line"/>
      <point x="378" y="445" type="line"/>
      <point x="378" y="508" type="line"/>
    </contour>
    <contour>
      <point x="378" y="508" type="line"/>
      <point x="378" y="508" type="line"/>
      <point x="378" y="445" type="line"/>
      <point x="441" y="445" type="line"/>
      <point x="441" y="508" type="line"/>
    </contour>
    <contour>
      <point x="504" y="508" type="line"/>
      <point x="504" y="508" type="line"/>
      <point x="504" y="445" type="line"/>
      <point x="567" y="445" type="line"/>
      <point x="567" y="508" type="line"/>
    </contour>
    <contour>
      <point x="567" y="508" type="line"/>
      <point x="567" y="508" type="line"/>
      <point x="567" y="445" type="line"/>
      <point x="630" y="445" type="line"/>
      <point x="630" y="508" type="line"/>
    </contour>
    <contour>
      <point x="63" y="445" type="line"/>
      <point x="63" y="445" type="line"/>
      <point x="63" y="382" type="line"/>
      <point x="126" y="382" type="line"/>
      <point x="126" y="445" type="line"/>
    </contour>
    <contour>
      <point x="126" y="445" type="line"/>
      <point x="126" y="445" type="line"/>
      <point x="126" y="382" type="line"/>
      <point x="189" y="382" type="line"/>
      <point x="189" y="445" type="line"/>
    </contour>
    <contour>
      <point x="315" y="445" type="line"/>
      <point x="315" y="445" type="line"/>
      <point x="315" y="382" type="line"/>
      <point x="378" y="382" type="line"/>
      <point x="378" y="445" type="line"/>
    </contour>
    <contour>
      <point x="378" y="445" type="line"/>
      <point x="378" y="445" type="line"/>
      <point x="378" y="382" type="line"/>
      <point x="441" y="382" type="line"/>
      <point x="441" y="445" type="line"/>
    </contour>
    <contour>
      <point x="504" y="445" type="line"/>
      <point x="504" y="445" type="line"/>
      <point x="504" y="382" type="line"/>
      <point x="567" y="382" type="line"/>
      <point x="567" y="445" type="line"/>
    </contour>
    <contour>
      <point x="567" y="445" type="line"/>
      <point x="567" y="445" type="line"/>
      <point x="567" y="382" type="line"/>
      <point x="630" y="382" type="line"/>
      <point x="630" y="445" type="line"/>
    </contour>
    <contour>
      <point x="126" y="382" type="line"/>
      <point x="126" y="382" type="line"/>
      <point x="126" y="319" type="line"/>
      <point x="189" y="319" type="line"/>
      <point x="189" y="382" type="line"/>
    </contour>
    <contour>
      <point x="189" y="382" type="line"/>
      <point x="189" y="382" type="line"/>
      <point x="189" y="319" type="line"/>
      <point x="252" y="319" type="line"/>
      <point x="252" y="382" type="line"/>
    </contour>
    <contour>
      <point x="252" y="382" type="line"/>
      <point x="252" y="382" type="line"/>
      <point x="252" y="319" type="line"/>
      <point x="315" y="319" type="line"/>
      <point x="315" y="382" type="line"/>
    </contour>
    <contour>
      <point x="315" y="382" type="line"/>
      <point x="315" y="382" type="line"/>
      <point x="315" y="319" type="line"/>
      <point x="378" y="319" type="line"/>
      <point x="378" y="382" type="line"/>
    </contour>
    <contour>
      <point x="441" y="382" type="line"/>
      <point x="441" y="382" type="line"/>
      <point x="441" y="319" type="line"/>
      <point x="504" y="319" type="line"/>
      <point x="504" y="382" type="line"/>
    </contour>
    <contour>
      <point x="504" y="382" type="line"/>
      <point x="504" y="382" type="line"/>
      <point x="504" y="319" type="line"/>
      <point x="567" y="319" type="line"/>
      <point x="567" y="382" type="line"/>
    </contour>
    <contour>
      <point x="630" y="382" type="line"/>
      <point x="630" y="382" type="line"/>
      <point x="630" y="319" type="line"/>
      <point x="693" y="319" type="line"/>
      <point x="693" y="382" type="line"/>
    </contour>
    <contour>
      <point x="693" y="382" type="line"/>
      <point x="693" y="382" type="line"/>
      <point x="693" y="319" type="line"/>
      <point x="756" y="319" type="line"/>
      <point x="756" y="382" type="line"/>
    </contour>
    <contour>
      <point x="756" y="382" type="line"/>
      <point x="756" y="382" type="line"/>
      <point x="756" y="319" type="line"/>
      <point x="819" y="319" type="line"/>
      <point x="819" y="382" type="line"/>
    </contour>
    <contour>
      <point x="819" y="382" type="line"/>
      <point x="819" y="382" type="line"/>
      <point x="819" y="319" type="line"/>
      <point x="882" y="319" type="line"/>
      <point x="882" y="382" type="line"/>
    </contour>
    <contour>
      <point x="378" y="319" type="line"/>
      <point x="378" y="319" type="line"/>
      <point x="378" y="256" type="line"/>
      <point x="441" y="256" type="line"/>
      <point x="441" y="319" type="line"/>
    </contour>
    <contour>
      <point x="441" y="319" type="line"/>
      <point x="441" y="319" type="line"/>
      <point x="441" y="256" type="line"/>
      <point x="504" y="256" type="line"/>
      <point x="504" y="319" type="line"/>
    </contour>
    <contour>
      <point x="567" y="319" type="line"/>
      <point x="567" y="319" type="line"/>
      <point x="567" y="256" type="line"/>
      <point x="630" y="256" type="line"/>
      <point x="630" y="319" type="line"/>
    </contour>
    <contour>
      <point x="630" y="319" type="line"/>
      <point x="630" y="319" type="line"/>
      <point x="630" y="256" type="line"/>
      <point x="693" y="256" type="line"/>
      <point x="693" y="319" type="line"/>
    </contour>
    <contour>
      <point x="819" y="319" type="line"/>
      <point x="819" y="319" type="line"/>
      <point x="819" y="256" type="line"/>
      <point x="882" y="256" type="line"/>
      <point x="882" y="319" type="line"/>
    </contour>
    <contour>
      <point x="882" y="319" type="line"/>
      <point x="882" y="319" type="line"/>
      <point x="882" y="256" type="line"/>
      <point x="945" y="256" type="line"/>
      <point x="945" y="319" type="line"/>
    </contour>
    <contour>
      <point x="315" y="256" type="line"/>
      <point x="315" y="256" type="line"/>
      <point x="315" y="193" type="line"/>
      <point x="378" y="193" type="line"/>
      <point x="378" y="256" type="line"/>
    </contour>
    <contour>
      <point x="378" y="256" type="line"/>
      <point x="378" y="256" type="line"/>
      <point x="378" y="193" type="line"/>
      <point x="441" y="193" type="line"/>
      <point x="441" y="256" type="line"/>
    </contour>
    <contour>
      <point x="567" y="256" type="line"/>
      <point x="567" y="256" type="line"/>
      <point x="567" y="193" type="line"/>
      <point x="630" y="193" type="line"/>
      <point x="630" y="256" type="line"/>
    </contour>
    <contour>
      <point x="630" y="256" type="line"/>
      <point x="630" y="256" type="line"/>
      <point x="630" y="193" type="line"/>
      <point x="693" y="193" type="line"/>
      <point x="693" y="256" type="line"/>
    </contour>
    <contour>
      <point x="819" y="256" type="line"/>
      <point x="819" y="256" type="line"/>
      <point x="819" y="193" type="line"/>
      <point x="882" y="193" type="line"/>
      <point x="882" y="256" type="line"/>
    </contour>
    <contour>
      <point x="882" y="256" type="line"/>
      <point x="882" y="256" type="line"/>
      <point x="882" y="193" type="line"/>
      <point x="945" y="193" type="line"/>
      <point x="945" y="256" type="line"/>
    </contour>
    <contour>
      <point x="315" y="193" type="line"/>
      <point x="315" y="193" type="line"/>
      <point x="315" y="130" type="line"/>
      <point x="378" y="130" type="line"/>
      <point x="378" y="193" type="line"/>
    </contour>
    <contour>
      <point x="378" y="193" type="line"/>
      <point x="378" y="193" type="line"/>
      <point x="378" y="130" type="line"/>
      <point x="441" y="130" type="line"/>
      <point x="441" y="193" type="line"/>
    </contour>
    <contour>
      <point x="567" y="193" type="line"/>
      <point x="567" y="193" type="line"/>
      <point x="567" y="130" type="line"/>
      <point x="630" y="130" type="line"/>
      <point x="630" y="193" type="line"/>
    </contour>
    <contour>
      <point x="630" y="193" type="line"/>
      <point x="630" y="193" type="line"/>
      <point x="630" y="130" type="line"/>
      <point x="693" y="130" type="line"/>
      <point x="693" y="193" type="line"/>
    </contour>
    <contour>
      <point x="819" y="193" type="line"/>
      <point x="819" y="193" type="line"/>
      <point x="819" y="130" type="line"/>
      <point x="882" y="130" type="line"/>
      <point x="882" y="193" type="line"/>
    </contour>
    <contour>
      <point x="882" y="193" type="line"/>
      <point x="882" y="193" type="line"/>
      <point x="882" y="130" type="line"/>
      <point x="945" y="130" type="line"/>
      <point x="945" y="193" type="line"/>
    </contour>
    <contour>
      <point x="252" y="130" type="line"/>
      <point x="252" y="130" type="line"/>
      <point x="252" y="67" type="line"/>
      <point x="315" y="67" type="line"/>
      <point x="315" y="130" type="line"/>
    </contour>
    <contour>
      <point x="315" y="130" type="line"/>
      <point x="315" y="130" type="line"/>
      <point x="315" y="67" type="line"/>
      <point x="378" y="67" type="line"/>
      <point x="378" y="130" type="line"/>
    </contour>
    <contour>
      <point x="567" y="130" type="line"/>
      <point x="567" y="130" type="line"/>
      <point x="567" y="67" type="line"/>
      <point x="630" y="67" type="line"/>
      <point x="630" y="130" type="line"/>
    </contour>
    <contour>
      <point x="630" y="130" type="line"/>
      <point x="630" y="130" type="line"/>
      <point x="630" y="67" type="line"/>
      <point x="693" y="67" type="line"/>
      <point x="693" y="130" type="line"/>
    </contour>
    <contour>
      <point x="819" y="130" type="line"/>
      <point x="819" y="130" type="line"/>
      <point x="819" y="67" type="line"/>
      <point x="882" y="67" type="line"/>
      <point x="882" y="130" type="line"/>
    </contour>
    <contour>
      <point x="882" y="130" type="line"/>
      <point x="882" y="130" type="line"/>
      <point x="882" y="67" type="line"/>
      <point x="945" y="67" type="line"/>
      <point x="945" y="130" type="line"/>
    </contour>
    <contour>
      <point x="252" y="67" type="line"/>
      <point x="252" y="67" type="line"/>
      <point x="252" y="4" type="line"/>
      <point x="315" y="4" type="line"/>
      <point x="315" y="67" type="line"/>
    </contour>
    <contour>
      <point x="315" y="67" type="line"/>
      <point x="315" y="67" type="line"/>
      <point x="315" y="4" type="line"/>
      <point x="378" y="4" type="line"/>
      <point x="378" y="67" type="line"/>
    </contour>
    <contour>
      <point x="630" y="67" type="line"/>
      <point x="630" y="67" type="line"/>
      <point x="630" y="4" type="line"/>
      <point x="693" y="4" type="line"/>
      <point x="693" y="67" type="line"/>
    </contour>
    <contour>
      <point x="693" y="67" type="line"/>
      <point x="693" y="67" type="line"/>
      <point x="693" y="4" type="line"/>
      <point x="756" y="4" type="line"/>
      <point x="756" y="67" type="line"/>
    </contour>
    <contour>
      <point x="756" y="67" type="line"/>
      <point x="756" y="67" type="line"/>
      <point x="756" y="4" type="line"/>
      <point x="819" y="4" type="line"/>
      <point x="819" y="67" type="line"/>
    </contour>
    <contour>
      <point x="819" y="67" type="line"/>
      <point x="819" y="67" type="line"/>
      <point x="819" y="4" type="line"/>
      <point x="882" y="4" type="line"/>
      <point x="882" y="67" type="line"/>
    </contour>
  </outline>
</glyph>
<glyph name="ampersand" format="2">
  <advance width="670"/>
  <unicode hex="0026"/>
  <outline>
    <contour>
      <point x="234" y="696" type="line"/>
      <point x="234" y="696" type="line"/>
      <point x="234" y="639" type="line"/>
      <point x="292" y="639" type="line"/>
      <point x="292" y="696" type="line"/>
    </contour>
    <contour>
      <point x="292" y="696" type="line"/>
      <point x="292" y="696" type="line"/>
      <point x="292" y="639" type="line"/>
      <point x="350" y="639" type="line"/>
      <point x="350" y="696" type="line"/>
    </contour>
    <contour>
      <point x="350" y="696" type="line"/>
      <point x="350" y="696" type="line"/>
      <point x="350" y="639" type="line"/>
      <point x="407" y="639" type="line"/>
      <point x="407" y="696" type="line"/>
    </contour>
    <contour>
      <point x="407" y="696" type="line"/>
      <point x="407" y="696" type="line"/>
      <point x="407" y="639" type="line"/>
      <point x="465" y="639" type="line"/>
      <point x="465" y="696" type="line"/>
    </contour>
    <contour>
      <point x="176" y="639" type="line"/>
      <point x="176" y="639" type="line"/>
      <point x="176" y="581" type="line"/>
      <point x="234" y="581" type="line"/>
      <point x="234" y="639" type="line"/>
    </contour>
    <contour>
      <point x="234" y="639" type="line"/>
      <point x="234" y="639" type="line"/>
      <point x="234" y="581" type="line"/>
      <point x="292" y="581" type="line"/>
      <point x="292" y="639" type="line"/>
    </contour>
    <contour>
      <point x="407" y="639" type="line"/>
      <point x="407" y="639" type="line"/>
      <point x="407" y="581" type="line"/>
      <point x="465" y="581" type="line"/>
      <point x="465" y="639" type="line"/>
    </contour>
    <contour>
      <point x="465" y="639" type="line"/>
      <point x="465" y="639" type="line"/>
      <point x="465" y="581" type="line"/>
      <point x="523" y="581" type="line"/>
      <point x="523" y="639" type="line"/>
    </contour>
    <contour>
      <point x="176" y="581" type="line"/>
      <point x="176" y="581" type="line"/>
      <point x="176" y="523" type="line"/>
      <point x="234" y="523" type="line"/>
      <point x="234" y="581" type="line"/>
    </contour>
    <contour>
      <point x="234" y="581" type="line"/>
      <point x="234" y="581" type="line"/>
      <point x="234" y="523" type="line"/>
      <point x="292" y="523" type="line"/>
      <point x="292" y="581" type="line"/>
    </contour>
    <contour>
      <point x="407" y="581" type="line"/>
      <point x="407" y="581" type="line"/>
      <point x="407" y="523" type="line"/>
      <point x="465" y="523" type="line"/>
      <point x="465" y="581" type="line"/>
    </contour>
    <contour>
      <point x="465" y="581" type="line"/>
      <point x="465" y="581" type="line"/>
      <point x="465" y="523" type="line"/>
      <point x="523" y="523" type="line"/>
      <point x="523" y="581" type="line"/>
    </contour>
    <contour>
      <point x="176" y="523" type="line"/>
      <point x="176" y="523" type="line"/>
      <point x="176" y="465" type="line"/>
      <point x="234" y="465" type="line"/>
      <point x="234" y="523" type="line"/>
    </contour>
    <contour>
      <point x="234" y="523" type="line"/>
      <point x="234" y="523" type="line"/>
      <point x="234" y="465" type="line"/>
      <point x="292" y="465" type="line"/>
      <point x="292" y="523" type="line"/>
    </contour>
    <contour>
      <point x="407" y="523" type="line"/>
      <point x="407" y="523" type="line"/>
      <point x="407" y="465" type="line"/>
      <point x="465" y="465" type="line"/>
      <point x="465" y="523" type="line"/>
    </contour>
    <contour>
      <point x="465" y="523" type="line"/>
      <point x="465" y="523" type="line"/>
      <point x="465" y="465" type="line"/>
      <point x="523" y="465" type="line"/>
      <point x="523" y="523" type="line"/>
    </contour>
    <contour>
      <point x="234" y="465" type="line"/>
      <point x="234" y="465" type="line"/>
      <point x="234" y="408" type="line"/>
      <point x="292" y="408" type="line"/>
      <point x="292" y="465" type="line"/>
    </contour>
    <contour>
      <point x="292" y="465" type="line"/>
      <point x="292" y="465" type="line"/>
      <point x="292" y="408" type="line"/>
      <point x="350" y="408" type="line"/>
      <point x="350" y="465" type="line"/>
    </contour>
    <contour>
      <point x="350" y="465" type="line"/>
      <point x="350" y="465" type="line"/>
      <point x="350" y="408" type="line"/>
      <point x="407" y="408" type="line"/>
      <point x="407" y="465" type="line"/>
    </contour>
    <contour>
      <point x="407" y="465" type="line"/>
      <point x="407" y="465" type="line"/>
      <point x="407" y="408" type="line"/>
      <point x="465" y="408" type="line"/>
      <point x="465" y="465" type="line"/>
    </contour>
    <contour>
      <point x="176" y="408" type="line"/>
      <point x="176" y="408" type="line"/>
      <point x="176" y="350" type="line"/>
      <point x="234" y="350" type="line"/>
      <point x="234" y="408" type="line"/>
    </contour>
    <contour>
      <point x="234" y="408" type="line"/>
      <point x="234" y="408" type="line"/>
      <point x="234" y="350" type="line"/>
      <point x="292" y="350" type="line"/>
      <point x="292" y="408" type="line"/>
    </contour>
    <contour>
      <point x="292" y="408" type="line"/>
      <point x="292" y="408" type="line"/>
      <point x="292" y="350" type="line"/>
      <point x="350" y="350" type="line"/>
      <point x="350" y="408" type="line"/>
    </contour>
    <contour>
      <point x="350" y="408" type="line"/>
      <point x="350" y="408" type="line"/>
      <point x="350" y="350" type="line"/>
      <point x="407" y="350" type="line"/>
      <point x="407" y="408" type="line"/>
    </contour>
    <contour>
      <point x="119" y="350" type="line"/>
      <point x="119" y="350" type="line"/>
      <point x="119" y="292" type="line"/>
      <point x="176" y="292" type="line"/>
      <point x="176" y="350" type="line"/>
    </contour>
    <contour>
      <point x="176" y="350" type="line"/>
      <point x="176" y="350" type="line"/>
      <point x="176" y="292" type="line"/>
      <point x="234" y="292" type="line"/>
      <point x="234" y="350" type="line"/>
    </contour>
    <contour>
      <point x="292" y="350" type="line"/>
      <point x="292" y="350" type="line"/>
      <point x="292" y="292" type="line"/>
      <point x="350" y="292" type="line"/>
      <point x="350" y="350" type="line"/>
    </contour>
    <contour>
      <point x="350" y="350" type="line"/>
      <point x="350" y="350" type="line"/>
      <point x="350" y="292" type="line"/>
      <point x="407" y="292" type="line"/>
      <point x="407" y="350" type="line"/>
    </contour>
    <contour>
      <point x="61" y="292" type="line"/>
      <point x="61" y="292" type="line"/>
      <point x="61" y="235" type="line"/>
      <point x="119" y="235" type="line"/>
      <point x="119" y="292" type="line"/>
    </contour>
    <contour>
      <point x="119" y="292" type="line"/>
      <point x="119" y="292" type="line"/>
      <point x="119" y="235" type="line"/>
      <point x="176" y="235" type="line"/>
      <point x="176" y="292" type="line"/>
    </contour>
    <contour>
      <point x="350" y="292" type="line"/>
      <point x="350" y="292" type="line"/>
      <point x="350" y="235" type="line"/>
      <point x="407" y="235" type="line"/>
      <point x="407" y="292" type="line"/>
    </contour>
    <contour>
      <point x="407" y="292" type="line"/>
      <point x="407" y="292" type="line"/>
      <point x="407" y="235" type="line"/>
      <point x="465" y="235" type="line"/>
      <point x="465" y="292" type="line"/>
    </contour>
    <contour>
      <point x="523" y="292" type="line"/>
      <point x="523" y="292" type="line"/>
      <point x="523" y="235" type="line"/>
      <point x="581" y="235" type="line"/>
      <point x="581" y="292" type="line"/>
    </contour>
    <contour>
      <point x="581" y="292" type="line"/>
      <point x="581" y="292" type="line"/>
      <point x="581" y="235" type="line"/>
      <point x="638" y="235" type="line"/>
      <point x="638" y="292" type="line"/>
    </contour>
    <contour>
      <point x="61" y="235" type="line"/>
      <point x="61" y="235" type="line"/>
      <point x="61" y="177" type="line"/>
      <point x="119" y="177" type="line"/>
      <point x="119" y="235" type="line"/>
    </contour>
    <contour>
      <point x="119" y="235" type="line"/>
      <point x="119" y="235" type="line"/>
      <point x="119" y="177" type="line"/>
      <point x="176" y="177" type="line"/>
      <point x="176" y="235" type="line"/>
    </contour>
    <contour>
      <point x="350" y="235" type="line"/>
      <point x="350" y="235" type="line"/>
      <point x="350" y="177" type="line"/>
      <point x="407" y="177" type="line"/>
      <point x="407" y="235" type="line"/>
    </contour>
    <contour>
      <point x="407" y="235" type="line"/>
      <point x="407" y="235" type="line"/>
      <point x="407" y="177" type="line"/>
      <point x="465" y="177" type="line"/>
      <point x="465" y="235" type="line"/>
    </contour>
    <contour>
      <point x="465" y="235" type="line"/>
      <point x="465" y="235" type="line"/>
      <point x="465" y="177" type="line"/>
      <point x="523" y="177" type="line"/>
      <point x="523" y="235" type="line"/>
    </contour>
    <contour>
      <point x="523" y="235" type="line"/>
      <point x="523" y="235" type="line"/>
      <point x="523" y="177" type="line"/>
      <point x="581" y="177" type="line"/>
      <point x="581" y="235" type="line"/>
    </contour>
    <contour>
      <point x="61" y="177" type="line"/>
      <point x="61" y="177" type="line"/>
      <point x="61" y="119" type="line"/>
      <point x="119" y="119" type="line"/>
      <point x="119" y="177" type="line"/>
    </contour>
    <contour>
      <point x="119" y="177" type="line"/>
      <point x="119" y="177" type="line"/>
      <point x="119" y="119" type="line"/>
      <point x="176" y="119" type="line"/>
      <point x="176" y="177" type="line"/>
    </contour>
    <contour>
      <point x="407" y="177" type="line"/>
      <point x="407" y="177" type="line"/>
      <point x="407" y="119" type="line"/>
      <point x="465" y="119" type="line"/>
      <point x="465" y="177" type="line"/>
    </contour>
    <contour>
      <point x="465" y="177" type="line"/>
      <point x="465" y="177" type="line"/>
      <point x="465" y="119" type="line"/>
      <point x="523" y="119" type="line"/>
      <point x="523" y="177" type="line"/>
    </contour>
    <contour>
      <point x="119" y="119" type="line"/>
      <point x="119" y="119" type="line"/>
      <point x="119" y="61" type="line"/>
      <point x="176" y="61" type="line"/>
      <point x="176" y="119" type="line"/>
    </contour>
    <contour>
      <point x="176" y="119" type="line"/>
      <point x="176" y="119" type="line"/>
      <point x="176" y="61" type="line"/>
      <point x="234" y="61" type="line"/>
      <point x="234" y="119" type="line"/>
    </contour>
    <contour>
      <point x="407" y="119" type="line"/>
      <point x="407" y="119" type="line"/>
      <point x="407" y="61" type="line"/>
      <point x="465" y="61" type="line"/>
      <point x="465" y="119" type="line"/>
    </contour>
    <contour>
      <point x="465" y="119" type="line"/>
      <point x="465" y="119" type="line"/>
      <point x="465" y="61" type="line"/>
      <point x="523" y="61" type="line"/>
      <point x="523" y="119" type="line"/>
    </contour>
    <contour>
      <point x="523" y="119" type="line"/>
      <point x="523" y="119" type="line"/>
      <point x="523" y="61" type="line"/>
      <point x="581" y="61" type="line"/>
      <point x="581" y="119" type="line"/>
    </contour>
    <contour>
      <point x="176" y="61" type="line"/>
      <point x="176" y="61" type="line"/>
      <point x="176" y="4" type="line"/>
      <point x="234" y="4" type="line"/>
      <point x="234" y="61" type="line"/>
    </contour>
    <contour>
      <point x="234" y="61" type="line"/>
      <point x="234" y="61" type="line"/>
      <point x="234" y="4" type="line"/>
      <point x="292" y="4" type="line"/>
      <point x="292" y="61" type="line"/>
    </contour>
    <contour>
      <point x="292" y="61" type="line"/>
      <point x="292" y="61" type="line"/>
      <point x="292" y="4" type="line"/>
      <point x="350" y="4" type="line"/>
      <point x="350" y="61" type="line"/>
    </contour>
    <contour>
      <point x="350" y="61" type="line"/>
      <point x="350" y="61" type="line"/>
      <point x="350" y="4" type="line"/>
      <point x="407" y="4" type="line"/>
      <point x="407" y="61" type="line"/>
    </contour>
    <contour>
      <point x="407" y="61" type="line"/>
      <point x="407" y="61" type="line"/>
      <point x="407" y="4" type="line"/>
      <point x="465" y="4" type="line"/>
      <point x="465" y="61" type="line"/>
    </contour>
    <contour>
      <point x="523" y="61" type="line"/>
      <point x="523" y="61" type="line"/>
      <point x="523" y="4" type="line"/>
      <point x="581" y="4" type="line"/>
      <point x="581" y="61" type="line"/>
    </contour>
    <contour>
      <point x="581" y="61" type="line"/>
      <point x="581" y="61" type="line"/>
      <point x="581" y="4" type="line"/>
      <point x="638" y="4" type="line"/>
      <point x="638" y="61" type="line"/>
    </contour>
  </outline>
</glyph>
<glyph name="quotesingle" format="2">
  <advance width="219"/>
  <unicode hex="0027"/>
  <outline>
    <contour>
      <point x="63" y="817" type="line"/>
      <point x="63" y="817" type="line"/>
      <point x="63" y="755" type="line"/>
      <point x="126" y="755" type="line"/>
      <point x="126" y="817" type="line"/>
    </contour>
    <contour>
      <point x="126" y="817" type="line"/>
      <point x="126" y="817" type="line"/>
      <point x="126" y="755" type="line"/>
      <point x="188" y="755" type="line"/>
      <point x="188" y="817" type="line"/>
    </contour>
    <contour>
      <point x="63" y="755" type="line"/>
      <point x="63" y="755" type="line"/>
      <point x="63" y="693" type="line"/>
      <point x="126" y="693" type="line"/>
      <point x="126" y="755" type="line"/>
    </contour>
    <contour>
      <point x="126" y="755" type="line"/>
      <point x="126" y="755" type="line"/>
      <point x="126" y="693" type="line"/>
      <point x="188" y="693" type="line"/>
      <point x="188" y="755" type="line"/>
    </contour>
    <contour>
      <point x="63" y="693" type="line"/>
      <point x="63" y="693" type="line"/>
      <point x="63" y="631" type="line"/>
      <point x="126" y="631" type="line"/>
      <point x="126" y="693" type="line"/>
    </contour>
    <contour>
      <point x="126" y="693" type="line"/>
      <point x="126" y="693" type="line"/>
      <point x="126" y="631" type="line"/>
      <point x="188" y="631" type="line"/>
      <point x="188" y="693" type="line"/>
    </contour>
    <contour>
      <point x="126" y="631" type="line"/>
      <point x="126" y="631" type="line"/>
      <point x="126" y="569" type="line"/>
      <point x="188" y="569" type="line"/>
      <point x="188" y="631" type="line"/>
    </contour>
  </outline>
</glyph>
<glyph name="parenleft" format="2">
  <advance width="337"/>
  <unicode hex="0028"/>
  <outline>
    <contour>
      <point x="185" y="745" type="line"/>
      <point x="185" y="745" type="line"/>
      <point x="185" y="685" type="line"/>
      <point x="245" y="685" type="line"/>
      <point x="245" y="745" type="line"/>
    </contour>
    <contour>
      <point x="245" y="745" type="line"/>
      <point x="245" y="745" type="line"/>
      <point x="245" y="685" type="line"/>
      <point x="306" y="685" type="line"/>
      <point x="306" y="745" type="line"/>
    </contour>
    <contour>
      <point x="124" y="685" type="line"/>
      <point x="124" y="685" type="line"/>
      <point x="124" y="624" type="line"/>
      <point x="185" y="624" type="line"/>
      <point x="185" y="685" type="line"/>
    </contour>
    <contour>
      <point x="185" y="685" type="line"/>
      <point x="185" y="685" type="line"/>
      <point x="185" y="624" type="line"/>
      <point x="245" y="624" type="line"/>
      <point x="245" y="685" type="line"/>
    </contour>
    <contour>
      <point x="124" y="624" type="line"/>
      <point x="124" y="624" type="line"/>
      <point x="124" y="563" type="line"/>
      <point x="185" y="563" type="line"/>
      <point x="185" y="624" type="line"/>
    </contour>
    <contour>
      <point x="185" y="624" type="line"/>
      <point x="185" y="624" type="line"/>
      <point x="185" y="563" type="line"/>
      <point x="245" y="563" type="line"/>
      <point x="245" y="624" type="line"/>
    </contour>
    <contour>
      <point x="63" y="563" type="line"/>
      <point x="63" y="563" type="line"/>
      <point x="63" y="503" type="line"/>
      <point x="124" y="503" type="line"/>
      <point x="124" y="563" type="line"/>
    </contour>
    <contour>
      <point x="124" y="563" type="line"/>
      <point x="124" y="563" type="line"/>
      <point x="124" y="503" type="line"/>
      <point x="185" y="503" type="line"/>
      <point x="185" y="563" type="line"/>
    </contour>
    <contour>
      <point x="63" y="503" type="line"/>
      <point x="63" y="503" type="line"/>
      <point x="63" y="442" type="line"/>
      <point x="124" y="442" type="line"/>
      <point x="124" y="503" type="line"/>
    </contour>
    <contour>
      <point x="124" y="503" type="line"/>
      <point x="124" y="503" type="line"/>
      <point x="124" y="442" type="line"/>
      <point x="185" y="442" type="line"/>
      <point x="185" y="503" type="line"/>
    </contour>
    <contour>
      <point x="63" y="442" type="line"/>
      <point x="63" y="442" type="line"/>
      <point x="63" y="381" type="line"/>
      <point x="124" y="381" type="line"/>
      <point x="124" y="442" type="line"/>
    </contour>
    <contour>
      <point x="124" y="442" type="line"/>
      <point x="124" y="442" type="line"/>
      <point x="124" y="381" type="line"/>
      <point x="185" y="381" type="line"/>
      <point x="185" y="442" type="line"/>
    </contour>
    <contour>
      <point x="63" y="381" type="line"/>
      <point x="63" y="381" type="line"/>
      <point x="63" y="321" type="line"/>
      <point x="124" y="321" type="line"/>
      <point x="124" y="381" type="line"/>
    </contour>
    <contour>
      <point x="124" y="381" type="line"/>
      <point x="124" y="381" type="line"/>
      <point x="124" y="321" type="line"/>
      <point x="185" y="321" type="line"/>
      <point x="185" y="381" type="line"/>
    </contour>
    <contour>
      <point x="63" y="321" type="line"/>
      <point x="63" y="321" type="line"/>
      <point x="63" y="260" type="line"/>
      <point x="124" y="260" type="line"/>
      <point x="124" y="321" type="line"/>
    </contour>
    <contour>
      <point x="124" y="321" type="line"/>
      <point x="124" y="321" type="line"/>
      <point x="124" y="260" type="line"/>
      <point x="185" y="260" type="line"/>
      <point x="185" y="321" type="line"/>
    </contour>
    <contour>
      <point x="63" y="260" type="line"/>
      <point x="63" y="260" type="line"/>
      <point x="63" y="199" type="line"/>
      <point x="124" y="199" type="line"/>
      <point x="124" y="260" type="line"/>
    </contour>
    <contour>
      <point x="124" y="260" type="line"/>
      <point x="124" y="260" type="line"/>
      <point x="124" y="199" type="line"/>
      <point x="185" y="199" type="line"/>
      <point x="185" y="260" type="line"/>
    </contour>
    <contour>
      <point x="63" y="199" type="line"/>
      <point x="63" y="199" type="line"/>
      <point x="63" y="139" type="line"/>
      <point x="124" y="139" type="line"/>
      <point x="124" y="199" type="line"/>
    </contour>
    <contour>
      <point x="124" y="199" type="line"/>
      <point x="124" y="199" type="line"/>
      <point x="124" y="139" type="line"/>
      <point x="185" y="139" type="line"/>
      <point x="185" y="199" type="line"/>
    </contour>
    <contour>
      <point x="124" y="139" type="line"/>
      <point x="124" y="139" type="line"/>
      <point x="124" y="78" type="line"/>
      <point x="185" y="78" type="line"/>
      <point x="185" y="139" type="line"/>
    </contour>
    <contour>
      <point x="185" y="139" type="line"/>
      <point x="185" y="139" type="line"/>
      <point x="185" y="78" type="line"/>
      <point x="245" y="78" type="line"/>
      <point x="245" y="139" type="line"/>
    </contour>
    <contour>
      <point x="124" y="78" type="line"/>
      <point x="124" y="78" type="line"/>
      <point x="124" y="17" type="line"/>
      <point x="185" y="17" type="line"/>
      <point x="185" y="78" type="line"/>
    </contour>
    <contour>
      <point x="185" y="78" type="line"/>
      <point x="185" y="78" type="line"/>
      <point x="185" y="17" type="line"/>
      <point x="245" y="17" type="line"/>
      <point x="245" y="78" type="line"/>
    </contour>
    <contour>
      <point x="185" y="17" type="line"/>
      <point x="185" y="17" type="line"/>
      <point x="185" y="-43" type="line"/>
      <point x="245" y="-43" type="line"/>
      <point x="245" y="17" type="line"/>
    </contour>
    <contour>
      <point x="245" y="17" type="line"/>
      <point x="245" y="17" type="line"/>
      <point x="245" y="-43" type="line"/>
      <point x="306" y="-43" type="line"/>
      <point x="306" y="17" type="line"/>
    </contour>
  </outline>
</glyph>
<glyph name="parenright" format="2">
  <advance width="337"/>
  <unicode hex="0029"/>
  <outline>
    <contour>
      <point x="185" y="745" type="line"/>
      <point x="185" y="745" type="line"/>
      <point x="185" y="685" type="line"/>
      <point x="124" y="685" type="line"/>
      <point x="124" y="745" type="line"/>
    </contour>
    <contour>
      <point x="124" y="745" type="line"/>
      <point x="124" y="745" type="line"/>
      <point x="124" y="685" type="line"/>
      <point x="63" y="685" type="line"/>
      <point x="63" y="745" type="line"/>
    </contour>
    <contour>
      <point x="245" y="685" type="line"/>
      <point x="245" y="685" type="line"/>
      <point x="245" y="624" type="line"/>
      <point x="185" y="624" type="line"/>
      <point x="185" y="685" type="line"/>
    </contour>
    <contour>
      <point x="185" y="685" type="line"/>
      <point x="185" y="685" type="line"/>
      <point x="185" y="624" type="line"/>
      <point x="124" y="624" type="line"/>
      <point x="124" y="685" type="line"/>
    </contour>
    <contour>
      <point x="245" y="624" type="line"/>
      <point x="245" y="624" type="line"/>
      <point x="245" y="563" type="line"/>
      <point x="185" y="563" type="line"/>
      <point x="185" y="624" type="line"/>
    </contour>
    <contour>
      <point x="185" y="624" type="line"/>
      <point x="185" y="624" type="line"/>
      <point x="185" y="563" type="line"/>
      <point x="124" y="563" type="line"/>
      <point x="124" y="624" type="line"/>
    </contour>
    <contour>
      <point x="306" y="563" type="line"/>
      <point x="306" y="563" type="line"/>
      <point x="306" y="503" type="line"/>
      <point x="245" y="503" type="line"/>
      <point x="245" y="563" type="line"/>
    </contour>
    <contour>
      <point x="245" y="563" type="line"/>
      <point x="245" y="563" type="line"/>
      <point x="245" y="503" type="line"/>
      <point x="185" y="503" type="line"/>
      <point x="185" y="563" type="line"/>
    </contour>
    <contour>
      <point x="306" y="503" type="line"/>
      <point x="306" y="503" type="line"/>
      <point x="306" y="442" type="line"/>
      <point x="245" y="442" type="line"/>
      <point x="245" y="503" type="line"/>
    </contour>
    <contour>
      <point x="245" y="503" type="line"/>
      <point x="245" y="503" type="line"/>
      <point x="245" y="442" type="line"/>
      <point x="185" y="442" type="line"/>
      <point x="185" y="503" type="line"/>
    </contour>
    <contour>
      <point x="306" y="442" type="line"/>
      <point x="306" y="442" type="line"/>
      <point x="306" y="381" type="line"/>
      <point x="245" y="381" type="line"/>
      <point x="245" y="442" type="line"/>
    </contour>
    <contour>
      <point x="245" y="442" type="line"/>
      <point x="245" y="442" type="line"/>
      <point x="245" y="381" type="line"/>
      <point x="185" y="381" type="line"/>
      <point x="185" y="442" type="line"/>
    </contour>
    <contour>
      <point x="306" y="381" type="line"/>
      <point x="306" y="381" type="line"/>
      <point x="306" y="321" type="line"/>
      <point x="245" y="321" type="line"/>
      <point x="245" y="381" type="line"/>
    </contour>
    <contour>
      <point x="245" y="381" type="line"/>
      <point x="245" y="381" type="line"/>
      <point x="245" y="321" type="line"/>
      <point x="185" y="321" type="line"/>
      <point x="185" y="381" type="line"/>
    </contour>
    <contour>
      <point x="306" y="321" type="line"/>
      <point x="306" y="321" type="line"/>
      <point x="306" y="260" type="line"/>
      <point x="245" y="260" type="line"/>
      <point x="245" y="321" type="line"/>
    </contour>
    <contour>
      <point x="245" y="321" type="line"/>
      <point x="245" y="321" type="line"/>
      <point x="245" y="260" type="line"/>
      <point x="185" y="260" type="line"/>
      <point x="185" y="321" type="line"/>
    </contour>
    <contour>
      <point x="306" y="260" type="line"/>
      <point x="306" y="260" type="line"/>
      <point x="306" y="199" type="line"/>
      <point x="245" y="199" type="line"/>
      <point x="245" y="260" type="line"/>
    </contour>
    <contour>
      <point x="245" y="260" type="line"/>
      <point x="245" y="260" type="line"/>
      <point x="245" y="199" type="line"/>
      <point x="185" y="199" type="line"/>
      <point x="185" y="260" type="line"/>
    </contour>
    <contour>
      <point x="306" y="199" type="line"/>
      <point x="306" y="199" type="line"/>
      <point x="306" y="139" type="line"/>
      <point x="245" y="139" type="line"/>
      <point x="245" y="199" type="line"/>
    </contour>
    <contour>
      <point x="245" y="199" type="line"/>
      <point x="245" y="199" type="line"/>
      <point x="245" y="139" type="line"/>
      <point x="185" y="139" type="line"/>
      <point x="185" y="199" type="line"/>
    </contour>
    <contour>
      <point x="245" y="139" type="line"/>
      <point x="245" y="139" type="line"/>
      <point x="245" y="78" type="line"/>
      <point x="185" y="78" type="line"/>
      <point x="185" y="139" type="line"/>
    </contour>
    <contour>
      <point x="185" y="139" type="line"/>
      <point x="185" y="139" type="line"/>
      <point x="185" y="78" type="line"/>
      <point x="124" y="78" type="line"/>
      <point x="124" y="139" type="line"/>
    </contour>
    <contour>
      <point x="245" y="78" type="line"/>
      <point x="245" y="78" type="line"/>
      <point x="245" y="17" type="line"/>
      <point x="185" y="17" type="line"/>
      <point x="185" y="78" type="line"/>
    </contour>
    <contour>
      <point x="185" y="78" type="line"/>
      <point x="185" y="78" type="line"/>
      <point x="185" y="17" type="line"/>
      <point x="124" y="17" type="line"/>
      <point x="124" y="78" type="line"/>
    </contour>
    <contour>
      <point x="185" y="17" type="line"/>
      <point x="185" y="17" type="line"/>
      <point x="185" y="-43" type="line"/>
      <point x="124" y="-43" type="line"/>
      <point x="124" y="17" type="line"/>
    </contour>
    <contour>
      <point x="124" y="17" type="line"/>
      <point x="124" y="17" type="line"/>
      <point x="124" y="-43" type="line"/>
      <point x="63" y="-43" type="line"/>
      <point x="63" y="17" type="line"/>
    </contour>
  </outline>
</glyph>
<glyph name="asterisk" format="2">
  <advance width="549"/>
  <unicode hex="002A"/>
  <outline>
    <contour>
      <point x="65" y="570" type="line"/>
      <point x="65" y="570" type="line"/>
      <point x="65" y="506" type="line"/>
      <point x="130" y="506" type="line"/>
      <point x="130" y="570" type="line"/>
    </contour>
    <contour>
      <point x="130" y="570" type="line"/>
      <point x="130" y="570" type="line"/>
      <point x="130" y="506" type="line"/>
      <point x="195" y="506" type="line"/>
      <point x="195" y="570" type="line"/>
    </contour>
    <contour>
      <point x="389" y="570" type="line"/>
      <point x="389" y="570" type="line"/>
      <point x="389" y="506" type="line"/>
      <point x="453" y="506" type="line"/>
      <point x="453" y="570" type="line"/>
    </contour>
    <contour>
      <point x="453" y="570" type="line"/>
      <point x="453" y="570" type="line"/>
      <point x="453" y="506" type="line"/>
      <point x="518" y="506" type="line"/>
      <point x="518" y="570" type="line"/>
    </contour>
    <contour>
      <point x="130" y="506" type="line"/>
      <point x="130" y="506" type="line"/>
      <point x="130" y="441" type="line"/>
      <point x="195" y="441" type="line"/>
      <point x="195" y="506" type="line"/>
    </contour>
    <contour>
      <point x="195" y="506" type="line"/>
      <point x="195" y="506" type="line"/>
      <point x="195" y="441" type="line"/>
      <point x="259" y="441" type="line"/>
      <point x="259" y="506" type="line"/>
    </contour>
    <contour>
      <point x="324" y="506" type="line"/>
      <point x="324" y="506" type="line"/>
      <point x="324" y="441" type="line"/>
      <point x="389" y="441" type="line"/>
      <point x="389" y="506" type="line"/>
    </contour>
    <contour>
      <point x="389" y="506" type="line"/>
      <point x="389" y="506" type="line"/>
      <point x="389" y="441" type="line"/>
      <point x="453" y="441" type="line"/>
      <point x="453" y="506" type="line"/>
    </contour>
    <contour>
      <point x="195" y="441" type="line"/>
      <point x="195" y="441" type="line"/>
      <point x="195" y="376" type="line"/>
      <point x="259" y="376" type="line"/>
      <point x="259" y="441" type="line"/>
    </contour>
    <contour>
      <point x="259" y="441" type="line"/>
      <point x="259" y="441" type="line"/>
      <point x="259" y="376" type="line"/>
      <point x="324" y="376" type="line"/>
      <point x="324" y="441" type="line"/>
    </contour>
    <contour>
      <point x="324" y="441" type="line"/>
      <point x="324" y="441" type="line"/>
      <point x="324" y="376" type="line"/>
      <point x="389" y="376" type="line"/>
      <point x="389" y="441" type="line"/>
    </contour>
    <contour>
      <point x="65" y="376" type="line"/>
      <point x="65" y="376" type="line"/>
      <point x="65" y="311" type="line"/>
      <point x="130" y="311" type="line"/>
      <point x="130" y="376" type="line"/>
    </contour>
    <contour>
      <point x="130" y="376" type="line"/>
      <point x="130" y="376" type="line"/>
      <point x="130" y="311" type="line"/>
      <point x="195" y="311" type="line"/>
      <point x="195" y="376" type="line"/>
    </contour>
    <contour>
      <point x="195" y="376" type="line"/>
      <point x="195" y="376" type="line"/>
      <point x="195" y="311" type="line"/>
      <point x="259" y="311" type="line"/>
      <point x="259" y="376" type="line"/>
    </contour>
    <contour>
      <point x="259" y="376" type="line"/>
      <point x="259" y="376" type="line"/>
      <point x="259" y="311" type="line"/>
      <point x="324" y="311" type="line"/>
      <point x="324" y="376" type="line"/>
    </contour>
    <contour>
      <point x="324" y="376" type="line"/>
      <point x="324" y="376" type="line"/>
      <point x="324" y="311" type="line"/>
      <point x="389" y="311" type="line"/>
      <point x="389" y="376" type="line"/>
    </contour>
    <contour>
      <point x="389" y="376" type="line"/>
      <point x="389" y="376" type="line"/>
      <point x="389" y="311" type="line"/>
      <point x="453" y="311" type="line"/>
      <point x="453" y="376" type="line"/>
    </contour>
    <contour>
      <point x="453" y="376" type="line"/>
      <point x="453" y="376" type="line"/>
      <point x="453" y="311" type="line"/>
      <point x="518" y="311" type="line"/>
      <point x="518" y="376" type="line"/>
    </contour>
    <contour>
      <point x="195" y="311" type="line"/>
      <point x="195" y="311" type="line"/>
      <point x="195" y="247" type="line"/>
      <point x="259" y="247" type="line"/>
      <point x="259" y="311" type="line"/>
    </contour>
    <contour>
      <point x="259" y="311" type="line"/>
      <point x="259" y="311" type="line"/>
      <point x="259" y="247" type="line"/>
      <point x="324" y="247" type="line"/>
      <point x="324" y="311" type="line"/>
    </contour>
    <contour>
      <point x="324" y="311" type="line"/>
      <point x="324" y="311" type="line"/>
      <point x="324" y="247" type="line"/>
      <point x="389" y="247" type="line"/>
      <point x="389" y="311" type="line"/>
    </contour>
    <contour>
      <point x="130" y="247" type="line"/>
      <point x="130" y="247" type="line"/>
      <point x="130" y="182" type="line"/>
      <point x="195" y="182" type="line"/>
      <point x="195" y="247" type="line"/>
    </contour>
    <contour>
      <point x="195" y="247" type="line"/>
      <point x="195" y="247" type="line"/>
      <point x="195" y="182" type="line"/>
      <point x="259" y="182" type="line"/>
      <point x="259" y="247" type="line"/>
    </contour>
    <contour>
      <point x="324" y="247" type="line"/>
      <point x="324" y="247" type="line"/>
      <point x="324" y="182" type="line"/>
      <point x="389" y="182" type="line"/>
      <point x="389" y="247" type="line"/>
    </contour>
    <contour>
      <point x="389" y="247" type="line"/>
      <point x="389" y="247" type="line"/>
      <point x="389" y="182" type="line"/>
      <point x="453" y="182" type="line"/>
      <point x="453" y="247" type="line"/>
    </contour>
    <contour>
      <point x="65" y="182" type="line"/>
      <point x="65" y="182" type="line"/>
      <point x="65" y="117" type="line"/>
      <point x="130" y="117" type="line"/>
      <point x="130" y="182" type="line"/>
    </contour>
    <contour>
      <point x="130" y="182" type="line"/>
      <point x="130" y="182" type="line"/>
      <point x="130" y="117" type="line"/>
      <point x="195" y="117" type="line"/>
      <point x="195" y="182" type="line"/>
    </contour>
    <contour>
      <point x="389" y="182" type="line"/>
      <point x="389" y="182" type="line"/>
      <point x="389" y="117" type="line"/>
      <point x="453" y="117" type="line"/>
      <point x="453" y="182" type="line"/>
    </contour>
    <contour>
      <point x="453" y="182" type="line"/>
      <point x="453" y="182" type="line"/>
      <point x="453" y="117" type="line"/>
      <point x="518" y="117" type="line"/>
      <point x="518" y="182" type="line"/>
    </contour>
  </outline>
</glyph>
<glyph name="plus" format="2">
  <advance width="639" />
  <unicode hex="002B" />
  <outline>
    <contour>
      <point x="272" y="559" type="line" />
      <point x="272" y="559" type="line" />
      <point x="272" y="497" type="line" />
      <point x="335" y="497" type="line" />
      <point x="335" y="559" type="line" />
    </contour>
    <contour>
      <point x="335" y="559" type="line" />
      <point x="335" y="559" type="line" />
      <point x="335" y="497" type="line" />
      <point x="397" y="497" type="line" />
      <point x="397" y="559" type="line" />
    </contour>
    <contour>
      <point x="272" y="497" type="line" />
      <point x="272" y="497" type="line" />
      <point x="272" y="434" type="line" />
      <point x="335" y="434" type="line" />
      <point x="335" y="497" type="line" />
    </contour>
    <contour>
      <point x="335" y="497" type="line" />
      <point x="335" y="497" type="line" />
      <point x="335" y="434" type="line" />
      <point x="397" y="434" type="line" />
      <point x="397" y="497" type="line" />
    </contour>
    <contour>
      <point x="272" y="434" type="line" />
      <point x="272" y="434" type="line" />
      <point x="272" y="372" type="line" />
      <point x="335" y="372" type="line" />
      <point x="335" y="434" type="line" />
    </contour>
    <contour>
      <point x="335" y="434" type="line" />
      <point x="335" y="434" type="line" />
      <point x="335" y="372" type="line" />
      <point x="397" y="372" type="line" />
      <point x="397" y="434" type="line" />
    </contour>
    <contour>
      <point x="84" y="372" type="line" />
      <point x="84" y="372" type="line" />
      <point x="84" y="309" type="line" />
      <point x="147" y="309" type="line" />
      <point x="147" y="372" type="line" />
    </contour>
    <contour>
      <point x="147" y="372" type="line" />
      <point x="147" y="372" type="line" />
      <point x="147" y="309" type="line" />
      <point x="209" y="309" type="line" />
      <point x="209" y="372" type="line" />
    </contour>
    <contour>
      <point x="209" y="372" type="line" />
      <point x="209" y="372" type="line" />
      <point x="209" y="309" type="line" />
      <point x="272" y="309" type="line" />
      <point x="272" y="372" type="line" />
    </contour>
    <contour>
      <point x="272" y="372" type="line" />
      <point x="272" y="372" type="line" />
      <point x="272" y="309" type="line" />
      <point x="335" y="309" type="line" />
      <point x="335" y="372" type="line" />
    </contour>
    <contour>
      <point x="335" y="372" type="line" />
      <point x="335" y="372" type="line" />
      <point x="335" y="309" type="line" />
      <point x="397" y="309" type="line" />
      <point x="397" y="372" type="line" />
    </contour>
    <contour>
      <point x="397" y="372" type="line" />
      <point x="397" y="372" type="line" />
      <point x="397" y="309" type="line" />
      <point x="460" y="309" type="line" />
      <point x="460" y="372" type="line" />
    </contour>
    <contour>
      <point x="460" y="372" type="line" />
      <point x="460" y="372" type="line" />
      <point x="460" y="309" type="line" />
      <point x="522" y="309" type="line" />
      <point x="522" y="372" type="line" />
    </contour>
    <contour>
      <point x="522" y="372" type="line" />
      <point x="522" y="372" type="line" />
      <point x="522" y="309" type="line" />
      <point x="585" y="309" type="line" />
      <point x="585" y="372" type="line" />
    </contour>
    <contour>
      <point x="272" y="309" type="line" />
      <point x="272" y="309" type="line" />
      <point x="272" y="246" type="line" />
      <point x="335" y="246" type="line" />
      <point x="335" y="309" type="line" />
    </contour>
    <contour>
      <point x="335" y="309" type="line" />
      <point x="335" y="309" type="line" />
      <point x="335" y="246" type="line" />
      <point x="397" y="246" type="line" />
      <point x="397" y="309" type="line" />
    </contour>
    <contour>
      <point x="272" y="246" type="line" />
      <point x="272" y="246" type="line" />
      <point x="272" y="184" type="line" />
      <point x="335" y="184" type="line" />
      <point x="335" y="246" type="line" />
    </contour>
    <contour>
      <point x="335" y="246" type="line" />
      <point x="335" y="246" type="line" />
      <point x="335" y="184" type="line" />
      <point x="397" y="184" type="line" />
      <point x="397" y="246" type="line" />
    </contour>
    <contour>
      <point x="272" y="184" type="line" />
      <point x="272" y="184" type="line" />
      <point x="272" y="121" type="line" />
      <point x="335" y="121" type="line" />
      <point x="335" y="184" type="line" />
    </contour>
    <contour>
      <point x="335" y="184" type="line" />
      <point x="335" y="184" type="line" />
      <point x="335" y="121" type="line" />
      <point x="397" y="121" type="line" />
      <point x="397" y="184" type="line" />
    </contour>
  </outline>
</glyph>
<glyph name="comma" format="2">
  <advance width="221"/>
  <unicode hex="002C"/>
  <outline>
    <contour>
      <point x="64" y="193" type="line"/>
      <point x="64" y="193" type="line"/>
      <point x="64" y="130" type="line"/>
      <point x="127" y="130" type="line"/>
      <point x="127" y="193" type="line"/>
    </contour>
    <contour>
      <point x="127" y="193" type="line"/>
      <point x="127" y="193" type="line"/>
      <point x="127" y="130" type="line"/>
      <point x="190" y="130" type="line"/>
      <point x="190" y="193" type="line"/>
    </contour>
    <contour>
      <point x="64" y="130" type="line"/>
      <point x="64" y="130" type="line"/>
      <point x="64" y="67" type="line"/>
      <point x="127" y="67" type="line"/>
      <point x="127" y="130" type="line"/>
    </contour>
    <contour>
      <point x="127" y="130" type="line"/>
      <point x="127" y="130" type="line"/>
      <point x="127" y="67" type="line"/>
      <point x="190" y="67" type="line"/>
      <point x="190" y="130" type="line"/>
    </contour>
    <contour>
      <point x="127" y="67" type="line"/>
      <point x="127" y="67" type="line"/>
      <point x="127" y="5" type="line"/>
      <point x="190" y="5" type="line"/>
      <point x="190" y="67" type="line"/>
    </contour>
    <contour>
      <point x="64" y="5" type="line"/>
      <point x="64" y="5" type="line"/>
      <point x="64" y="-58" type="line"/>
      <point x="127" y="-58" type="line"/>
      <point x="127" y="5" type="line"/>
    </contour>
  </outline>
</glyph>
<glyph name="hyphen" format="2">
  <advance width="471"/>
  <unicode hex="002D"/>
  <outline>
    <contour>
      <point x="64" y="388" type="line"/>
      <point x="64" y="388" type="line"/>
      <point x="64" y="325" type="line"/>
      <point x="127" y="325" type="line"/>
      <point x="127" y="388" type="line"/>
    </contour>
    <contour>
      <point x="127" y="388" type="line"/>
      <point x="127" y="388" type="line"/>
      <point x="127" y="325" type="line"/>
      <point x="189" y="325" type="line"/>
      <point x="189" y="388" type="line"/>
    </contour>
    <contour>
      <point x="189" y="388" type="line"/>
      <point x="189" y="388" type="line"/>
      <point x="189" y="325" type="line"/>
      <point x="252" y="325" type="line"/>
      <point x="252" y="388" type="line"/>
    </contour>
    <contour>
      <point x="252" y="388" type="line"/>
      <point x="252" y="388" type="line"/>
      <point x="252" y="325" type="line"/>
      <point x="315" y="325" type="line"/>
      <point x="315" y="388" type="line"/>
    </contour>
    <contour>
      <point x="315" y="388" type="line"/>
      <point x="315" y="388" type="line"/>
      <point x="315" y="325" type="line"/>
      <point x="377" y="325" type="line"/>
      <point x="377" y="388" type="line"/>
    </contour>
    <contour>
      <point x="377" y="388" type="line"/>
      <point x="377" y="388" type="line"/>
      <point x="377" y="325" type="line"/>
      <point x="440" y="325" type="line"/>
      <point x="440" y="388" type="line"/>
    </contour>
  </outline>
</glyph>
<glyph name="period" format="2">
  <advance width="220"/>
  <unicode hex="002E"/>
  <outline>
    <contour>
      <point x="64" y="130" type="line"/>
      <point x="64" y="130" type="line"/>
      <point x="64" y="67" type="line"/>
      <point x="127" y="67" type="line"/>
      <point x="127" y="130" type="line"/>
    </contour>
    <contour>
      <point x="127" y="130" type="line"/>
      <point x="127" y="130" type="line"/>
      <point x="127" y="67" type="line"/>
      <point x="190" y="67" type="line"/>
      <point x="190" y="130" type="line"/>
    </contour>
    <contour>
      <point x="64" y="67" type="line"/>
      <point x="64" y="67" type="line"/>
      <point x="64" y="4" type="line"/>
      <point x="127" y="4" type="line"/>
      <point x="127" y="67" type="line"/>
    </contour>
    <contour>
      <point x="127" y="67" type="line"/>
      <point x="127" y="67" type="line"/>
      <point x="127" y="4" type="line"/>
      <point x="190" y="4" type="line"/>
      <point x="190" y="67" type="line"/>
    </contour>
  </outline>
</glyph>
<glyph name="slash" format="2">
  <advance width="472"/>
  <unicode hex="002F"/>
  <outline>
    <contour>
      <point x="315" y="695" type="line"/>
      <point x="315" y="695" type="line"/>
      <point x="315" y="632" type="line"/>
      <point x="378" y="632" type="line"/>
      <point x="378" y="695" type="line"/>
    </contour>
    <contour>
      <point x="378" y="695" type="line"/>
      <point x="378" y="695" type="line"/>
      <point x="378" y="632" type="line"/>
      <point x="441" y="632" type="line"/>
      <point x="441" y="695" type="line"/>
    </contour>
    <contour>
      <point x="315" y="632" type="line"/>
      <point x="315" y="632" type="line"/>
      <point x="315" y="569" type="line"/>
      <point x="378" y="569" type="line"/>
      <point x="378" y="632" type="line"/>
    </contour>
    <contour>
      <point x="378" y="632" type="line"/>
      <point x="378" y="632" type="line"/>
      <point x="378" y="569" type="line"/>
      <point x="441" y="569" type="line"/>
      <point x="441" y="632" type="line"/>
    </contour>
    <contour>
      <point x="253" y="569" type="line"/>
      <point x="253" y="569" type="line"/>
      <point x="253" y="507" type="line"/>
      <point x="315" y="507" type="line"/>
      <point x="315" y="569" type="line"/>
    </contour>
    <contour>
      <point x="315" y="569" type="line"/>
      <point x="315" y="569" type="line"/>
      <point x="315" y="507" type="line"/>
      <point x="378" y="507" type="line"/>
      <point x="378" y="569" type="line"/>
    </contour>
    <contour>
      <point x="253" y="507" type="line"/>
      <point x="253" y="507" type="line"/>
      <point x="253" y="444" type="line"/>
      <point x="315" y="444" type="line"/>
      <point x="315" y="507" type="line"/>
    </contour>
    <contour>
      <point x="315" y="507" type="line"/>
      <point x="315" y="507" type="line"/>
      <point x="315" y="444" type="line"/>
      <point x="378" y="444" type="line"/>
      <point x="378" y="507" type="line"/>
    </contour>
    <contour>
      <point x="253" y="444" type="line"/>
      <point x="253" y="444" type="line"/>
      <point x="253" y="381" type="line"/>
      <point x="315" y="381" type="line"/>
      <point x="315" y="444" type="line"/>
    </contour>
    <contour>
      <point x="315" y="444" type="line"/>
      <point x="315" y="444" type="line"/>
      <point x="315" y="381" type="line"/>
      <point x="378" y="381" type="line"/>
      <point x="378" y="444" type="line"/>
    </contour>
    <contour>
      <point x="190" y="381" type="line"/>
      <point x="190" y="381" type="line"/>
      <point x="190" y="318" type="line"/>
      <point x="253" y="318" type="line"/>
      <point x="253" y="381" type="line"/>
    </contour>
    <contour>
      <point x="253" y="381" type="line"/>
      <point x="253" y="381" type="line"/>
      <point x="253" y="318" type="line"/>
      <point x="315" y="318" type="line"/>
      <point x="315" y="381" type="line"/>
    </contour>
    <contour>
      <point x="127" y="318" type="line"/>
      <point x="127" y="318" type="line"/>
      <point x="127" y="255" type="line"/>
      <point x="190" y="255" type="line"/>
      <point x="190" y="318" type="line"/>
    </contour>
    <contour>
      <point x="190" y="318" type="line"/>
      <point x="190" y="318" type="line"/>
      <point x="190" y="255" type="line"/>
      <point x="253" y="255" type="line"/>
      <point x="253" y="318" type="line"/>
    </contour>
    <contour>
      <point x="127" y="255" type="line"/>
      <point x="127" y="255" type="line"/>
      <point x="127" y="193" type="line"/>
      <point x="190" y="193" type="line"/>
      <point x="190" y="255" type="line"/>
    </contour>
    <contour>
      <point x="190" y="255" type="line"/>
      <point x="190" y="255" type="line"/>
      <point x="190" y="193" type="line"/>
      <point x="253" y="193" type="line"/>
      <point x="253" y="255" type="line"/>
    </contour>
    <contour>
      <point x="127" y="193" type="line"/>
      <point x="127" y="193" type="line"/>
      <point x="127" y="130" type="line"/>
      <point x="190" y="130" type="line"/>
      <point x="190" y="193" type="line"/>
    </contour>
    <contour>
      <point x="190" y="193" type="line"/>
      <point x="190" y="193" type="line"/>
      <point x="190" y="130" type="line"/>
      <point x="253" y="130" type="line"/>
      <point x="253" y="193" type="line"/>
    </contour>
    <contour>
      <point x="64" y="130" type="line"/>
      <point x="64" y="130" type="line"/>
      <point x="64" y="67" type="line"/>
      <point x="127" y="67" type="line"/>
      <point x="127" y="130" type="line"/>
    </contour>
    <contour>
      <point x="127" y="130" type="line"/>
      <point x="127" y="130" type="line"/>
      <point x="127" y="67" type="line"/>
      <point x="190" y="67" type="line"/>
      <point x="190" y="130" type="line"/>
    </contour>
    <contour>
      <point x="64" y="67" type="line"/>
      <point x="64" y="67" type="line"/>
      <point x="64" y="4" type="line"/>
      <point x="127" y="4" type="line"/>
      <point x="127" y="67" type="line"/>
    </contour>
    <contour>
      <point x="127" y="67" type="line"/>
      <point x="127" y="67" type="line"/>
      <point x="127" y="4" type="line"/>
      <point x="190" y="4" type="line"/>
      <point x="190" y="67" type="line"/>
    </contour>
  </outline>
</glyph>
<glyph name="zero" format="2">
  <advance width="556"/>
  <unicode hex="0030"/>
  <outline>
    <contour>
      <point x="179" y="696" type="line"/>
      <point x="179" y="696" type="line"/>
      <point x="179" y="639" type="line"/>
      <point x="237" y="639" type="line"/>
      <point x="237" y="696" type="line"/>
    </contour>
    <contour>
      <point x="237" y="696" type="line"/>
      <point x="237" y="696" type="line"/>
      <point x="237" y="639" type="line"/>
      <point x="294" y="639" type="line"/>
      <point x="294" y="696" type="line"/>
    </contour>
    <contour>
      <point x="294" y="696" type="line"/>
      <point x="294" y="696" type="line"/>
      <point x="294" y="639" type="line"/>
      <point x="352" y="639" type="line"/>
      <point x="352" y="696" type="line"/>
    </contour>
    <contour>
      <point x="352" y="696" type="line"/>
      <point x="352" y="696" type="line"/>
      <point x="352" y="639" type="line"/>
      <point x="409" y="639" type="line"/>
      <point x="409" y="696" type="line"/>
    </contour>
    <contour>
      <point x="121" y="639" type="line"/>
      <point x="121" y="639" type="line"/>
      <point x="121" y="581" type="line"/>
      <point x="179" y="581" type="line"/>
      <point x="179" y="639" type="line"/>
    </contour>
    <contour>
      <point x="179" y="639" type="line"/>
      <point x="179" y="639" type="line"/>
      <point x="179" y="581" type="line"/>
      <point x="237" y="581" type="line"/>
      <point x="237" y="639" type="line"/>
    </contour>
    <contour>
      <point x="352" y="639" type="line"/>
      <point x="352" y="639" type="line"/>
      <point x="352" y="581" type="line"/>
      <point x="409" y="581" type="line"/>
      <point x="409" y="639" type="line"/>
    </contour>
    <contour>
      <point x="409" y="639" type="line"/>
      <point x="409" y="639" type="line"/>
      <point x="409" y="581" type="line"/>
      <point x="467" y="581" type="line"/>
      <point x="467" y="639" type="line"/>
    </contour>
    <contour>
      <point x="64" y="581" type="line"/>
      <point x="64" y="581" type="line"/>
      <point x="64" y="523" type="line"/>
      <point x="121" y="523" type="line"/>
      <point x="121" y="581" type="line"/>
    </contour>
    <contour>
      <point x="121" y="581" type="line"/>
      <point x="121" y="581" type="line"/>
      <point x="121" y="523" type="line"/>
      <point x="179" y="523" type="line"/>
      <point x="179" y="581" type="line"/>
    </contour>
    <contour>
      <point x="409" y="581" type="line"/>
      <point x="409" y="581" type="line"/>
      <point x="409" y="523" type="line"/>
      <point x="467" y="523" type="line"/>
      <point x="467" y="581" type="line"/>
    </contour>
    <contour>
      <point x="467" y="581" type="line"/>
      <point x="467" y="581" type="line"/>
      <point x="467" y="523" type="line"/>
      <point x="525" y="523" type="line"/>
      <point x="525" y="581" type="line"/>
    </contour>
    <contour>
      <point x="64" y="523" type="line"/>
      <point x="64" y="523" type="line"/>
      <point x="64" y="466" type="line"/>
      <point x="121" y="466" type="line"/>
      <point x="121" y="523" type="line"/>
    </contour>
    <contour>
      <point x="121" y="523" type="line"/>
      <point x="121" y="523" type="line"/>
      <point x="121" y="466" type="line"/>
      <point x="179" y="466" type="line"/>
      <point x="179" y="523" type="line"/>
    </contour>
    <contour>
      <point x="409" y="523" type="line"/>
      <point x="409" y="523" type="line"/>
      <point x="409" y="466" type="line"/>
      <point x="467" y="466" type="line"/>
      <point x="467" y="523" type="line"/>
    </contour>
    <contour>
      <point x="467" y="523" type="line"/>
      <point x="467" y="523" type="line"/>
      <point x="467" y="466" type="line"/>
      <point x="525" y="466" type="line"/>
      <point x="525" y="523" type="line"/>
    </contour>
    <contour>
      <point x="64" y="466" type="line"/>
      <point x="64" y="466" type="line"/>
      <point x="64" y="408" type="line"/>
      <point x="121" y="408" type="line"/>
      <point x="121" y="466" type="line"/>
    </contour>
    <contour>
      <point x="121" y="466" type="line"/>
      <point x="121" y="466" type="line"/>
      <point x="121" y="408" type="line"/>
      <point x="179" y="408" type="line"/>
      <point x="179" y="466" type="line"/>
    </contour>
    <contour>
      <point x="409" y="466" type="line"/>
      <point x="409" y="466" type="line"/>
      <point x="409" y="408" type="line"/>
      <point x="467" y="408" type="line"/>
      <point x="467" y="466" type="line"/>
    </contour>
    <contour>
      <point x="467" y="466" type="line"/>
      <point x="467" y="466" type="line"/>
      <point x="467" y="408" type="line"/>
      <point x="525" y="408" type="line"/>
      <point x="525" y="466" type="line"/>
    </contour>
    <contour>
      <point x="64" y="408" type="line"/>
      <point x="64" y="408" type="line"/>
      <point x="64" y="351" type="line"/>
      <point x="121" y="351" type="line"/>
      <point x="121" y="408" type="line"/>
    </contour>
    <contour>
      <point x="121" y="408" type="line"/>
      <point x="121" y="408" type="line"/>
      <point x="121" y="351" type="line"/>
      <point x="179" y="351" type="line"/>
      <point x="179" y="408" type="line"/>
    </contour>
    <contour>
      <point x="409" y="408" type="line"/>
      <point x="409" y="408" type="line"/>
      <point x="409" y="351" type="line"/>
      <point x="467" y="351" type="line"/>
      <point x="467" y="408" type="line"/>
    </contour>
    <contour>
      <point x="467" y="408" type="line"/>
      <point x="467" y="408" type="line"/>
      <point x="467" y="351" type="line"/>
      <point x="525" y="351" type="line"/>
      <point x="525" y="408" type="line"/>
    </contour>
    <contour>
      <point x="64" y="351" type="line"/>
      <point x="64" y="351" type="line"/>
      <point x="64" y="293" type="line"/>
      <point x="121" y="293" type="line"/>
      <point x="121" y="351" type="line"/>
    </contour>
    <contour>
      <point x="121" y="351" type="line"/>
      <point x="121" y="351" type="line"/>
      <point x="121" y="293" type="line"/>
      <point x="179" y="293" type="line"/>
      <point x="179" y="351" type="line"/>
    </contour>
    <contour>
      <point x="409" y="351" type="line"/>
      <point x="409" y="351" type="line"/>
      <point x="409" y="293" type="line"/>
      <point x="467" y="293" type="line"/>
      <point x="467" y="351" type="line"/>
    </contour>
    <contour>
      <point x="467" y="351" type="line"/>
      <point x="467" y="351" type="line"/>
      <point x="467" y="293" type="line"/>
      <point x="525" y="293" type="line"/>
      <point x="525" y="351" type="line"/>
    </contour>
    <contour>
      <point x="64" y="293" type="line"/>
      <point x="64" y="293" type="line"/>
      <point x="64" y="235" type="line"/>
      <point x="121" y="235" type="line"/>
      <point x="121" y="293" type="line"/>
    </contour>
    <contour>
      <point x="121" y="293" type="line"/>
      <point x="121" y="293" type="line"/>
      <point x="121" y="235" type="line"/>
      <point x="179" y="235" type="line"/>
      <point x="179" y="293" type="line"/>
    </contour>
    <contour>
      <point x="409" y="293" type="line"/>
      <point x="409" y="293" type="line"/>
      <point x="409" y="235" type="line"/>
      <point x="467" y="235" type="line"/>
      <point x="467" y="293" type="line"/>
    </contour>
    <contour>
      <point x="467" y="293" type="line"/>
      <point x="467" y="293" type="line"/>
      <point x="467" y="235" type="line"/>
      <point x="525" y="235" type="line"/>
      <point x="525" y="293" type="line"/>
    </contour>
    <contour>
      <point x="64" y="235" type="line"/>
      <point x="64" y="235" type="line"/>
      <point x="64" y="178" type="line"/>
      <point x="121" y="178" type="line"/>
      <point x="121" y="235" type="line"/>
    </contour>
    <contour>
      <point x="121" y="235" type="line"/>
      <point x="121" y="235" type="line"/>
      <point x="121" y="178" type="line"/>
      <point x="179" y="178" type="line"/>
      <point x="179" y="235" type="line"/>
    </contour>
    <contour>
      <point x="409" y="235" type="line"/>
      <point x="409" y="235" type="line"/>
      <point x="409" y="178" type="line"/>
      <point x="467" y="178" type="line"/>
      <point x="467" y="235" type="line"/>
    </contour>
    <contour>
      <point x="467" y="235" type="line"/>
      <point x="467" y="235" type="line"/>
      <point x="467" y="178" type="line"/>
      <point x="525" y="178" type="line"/>
      <point x="525" y="235" type="line"/>
    </contour>
    <contour>
      <point x="64" y="178" type="line"/>
      <point x="64" y="178" type="line"/>
      <point x="64" y="120" type="line"/>
      <point x="121" y="120" type="line"/>
      <point x="121" y="178" type="line"/>
    </contour>
    <contour>
      <point x="121" y="178" type="line"/>
      <point x="121" y="178" type="line"/>
      <point x="121" y="120" type="line"/>
      <point x="179" y="120" type="line"/>
      <point x="179" y="178" type="line"/>
    </contour>
    <contour>
      <point x="409" y="178" type="line"/>
      <point x="409" y="178" type="line"/>
      <point x="409" y="120" type="line"/>
      <point x="467" y="120" type="line"/>
      <point x="467" y="178" type="line"/>
    </contour>
    <contour>
      <point x="467" y="178" type="line"/>
      <point x="467" y="178" type="line"/>
      <point x="467" y="120" type="line"/>
      <point x="525" y="120" type="line"/>
      <point x="525" y="178" type="line"/>
    </contour>
    <contour>
      <point x="121" y="120" type="line"/>
      <point x="121" y="120" type="line"/>
      <point x="121" y="62" type="line"/>
      <point x="179" y="62" type="line"/>
      <point x="179" y="120" type="line"/>
    </contour>
    <contour>
      <point x="179" y="120" type="line"/>
      <point x="179" y="120" type="line"/>
      <point x="179" y="62" type="line"/>
      <point x="237" y="62" type="line"/>
      <point x="237" y="120" type="line"/>
    </contour>
    <contour>
      <point x="352" y="120" type="line"/>
      <point x="352" y="120" type="line"/>
      <point x="352" y="62" type="line"/>
      <point x="409" y="62" type="line"/>
      <point x="409" y="120" type="line"/>
    </contour>
    <contour>
      <point x="409" y="120" type="line"/>
      <point x="409" y="120" type="line"/>
      <point x="409" y="62" type="line"/>
      <point x="467" y="62" type="line"/>
      <point x="467" y="120" type="line"/>
    </contour>
    <contour>
      <point x="179" y="62" type="line"/>
      <point x="179" y="62" type="line"/>
      <point x="179" y="5" type="line"/>
      <point x="237" y="5" type="line"/>
      <point x="237" y="62" type="line"/>
    </contour>
    <contour>
      <point x="237" y="62" type="line"/>
      <point x="237" y="62" type="line"/>
      <point x="237" y="5" type="line"/>
      <point x="294" y="5" type="line"/>
      <point x="294" y="62" type="line"/>
    </contour>
    <contour>
      <point x="294" y="62" type="line"/>
      <point x="294" y="62" type="line"/>
      <point x="294" y="5" type="line"/>
      <point x="352" y="5" type="line"/>
      <point x="352" y="62" type="line"/>
    </contour>
    <contour>
      <point x="352" y="62" type="line"/>
      <point x="352" y="62" type="line"/>
      <point x="352" y="5" type="line"/>
      <point x="409" y="5" type="line"/>
      <point x="409" y="62" type="line"/>
    </contour>
  </outline>
</glyph>
<glyph name="one" format="2">
  <advance width="379"/>
  <unicode hex="0031"/>
  <outline>
    <contour>
      <point x="233" y="697" type="line"/>
      <point x="233" y="697" type="line"/>
      <point x="233" y="639" type="line"/>
      <point x="290" y="639" type="line"/>
      <point x="290" y="697" type="line"/>
    </contour>
    <contour>
      <point x="290" y="697" type="line"/>
      <point x="290" y="697" type="line"/>
      <point x="290" y="639" type="line"/>
      <point x="348" y="639" type="line"/>
      <point x="348" y="697" type="line"/>
    </contour>
    <contour>
      <point x="175" y="639" type="line"/>
      <point x="175" y="639" type="line"/>
      <point x="175" y="582" type="line"/>
      <point x="233" y="582" type="line"/>
      <point x="233" y="639" type="line"/>
    </contour>
    <contour>
      <point x="233" y="639" type="line"/>
      <point x="233" y="639" type="line"/>
      <point x="233" y="582" type="line"/>
      <point x="290" y="582" type="line"/>
      <point x="290" y="639" type="line"/>
    </contour>
    <contour>
      <point x="290" y="639" type="line"/>
      <point x="290" y="639" type="line"/>
      <point x="290" y="582" type="line"/>
      <point x="348" y="582" type="line"/>
      <point x="348" y="639" type="line"/>
    </contour>
    <contour>
      <point x="117" y="582" type="line"/>
      <point x="117" y="582" type="line"/>
      <point x="117" y="524" type="line"/>
      <point x="175" y="524" type="line"/>
      <point x="175" y="582" type="line"/>
    </contour>
    <contour>
      <point x="175" y="582" type="line"/>
      <point x="175" y="582" type="line"/>
      <point x="175" y="524" type="line"/>
      <point x="233" y="524" type="line"/>
      <point x="233" y="582" type="line"/>
    </contour>
    <contour>
      <point x="233" y="582" type="line"/>
      <point x="233" y="582" type="line"/>
      <point x="233" y="524" type="line"/>
      <point x="290" y="524" type="line"/>
      <point x="290" y="582" type="line"/>
    </contour>
    <contour>
      <point x="290" y="582" type="line"/>
      <point x="290" y="582" type="line"/>
      <point x="290" y="524" type="line"/>
      <point x="348" y="524" type="line"/>
      <point x="348" y="582" type="line"/>
    </contour>
    <contour>
      <point x="59" y="524" type="line"/>
      <point x="59" y="524" type="line"/>
      <point x="59" y="466" type="line"/>
      <point x="117" y="466" type="line"/>
      <point x="117" y="524" type="line"/>
    </contour>
    <contour>
      <point x="117" y="524" type="line"/>
      <point x="117" y="524" type="line"/>
      <point x="117" y="466" type="line"/>
      <point x="175" y="466" type="line"/>
      <point x="175" y="524" type="line"/>
    </contour>
    <contour>
      <point x="233" y="524" type="line"/>
      <point x="233" y="524" type="line"/>
      <point x="233" y="466" type="line"/>
      <point x="290" y="466" type="line"/>
      <point x="290" y="524" type="line"/>
    </contour>
    <contour>
      <point x="290" y="524" type="line"/>
      <point x="290" y="524" type="line"/>
      <point x="290" y="466" type="line"/>
      <point x="348" y="466" type="line"/>
      <point x="348" y="524" type="line"/>
    </contour>
    <contour>
      <point x="233" y="466" type="line"/>
      <point x="233" y="466" type="line"/>
      <point x="233" y="408" type="line"/>
      <point x="290" y="408" type="line"/>
      <point x="290" y="466" type="line"/>
    </contour>
    <contour>
      <point x="290" y="466" type="line"/>
      <point x="290" y="466" type="line"/>
      <point x="290" y="408" type="line"/>
      <point x="348" y="408" type="line"/>
      <point x="348" y="466" type="line"/>
    </contour>
    <contour>
      <point x="233" y="408" type="line"/>
      <point x="233" y="408" type="line"/>
      <point x="233" y="351" type="line"/>
      <point x="290" y="351" type="line"/>
      <point x="290" y="408" type="line"/>
    </contour>
    <contour>
      <point x="290" y="408" type="line"/>
      <point x="290" y="408" type="line"/>
      <point x="290" y="351" type="line"/>
      <point x="348" y="351" type="line"/>
      <point x="348" y="408" type="line"/>
    </contour>
    <contour>
      <point x="233" y="351" type="line"/>
      <point x="233" y="351" type="line"/>
      <point x="233" y="293" type="line"/>
      <point x="290" y="293" type="line"/>
      <point x="290" y="351" type="line"/>
    </contour>
    <contour>
      <point x="290" y="351" type="line"/>
      <point x="290" y="351" type="line"/>
      <point x="290" y="293" type="line"/>
      <point x="348" y="293" type="line"/>
      <point x="348" y="351" type="line"/>
    </contour>
    <contour>
      <point x="233" y="293" type="line"/>
      <point x="233" y="293" type="line"/>
      <point x="233" y="235" type="line"/>
      <point x="290" y="235" type="line"/>
      <point x="290" y="293" type="line"/>
    </contour>
    <contour>
      <point x="290" y="293" type="line"/>
      <point x="290" y="293" type="line"/>
      <point x="290" y="235" type="line"/>
      <point x="348" y="235" type="line"/>
      <point x="348" y="293" type="line"/>
    </contour>
    <contour>
      <point x="233" y="235" type="line"/>
      <point x="233" y="235" type="line"/>
      <point x="233" y="177" type="line"/>
      <point x="290" y="177" type="line"/>
      <point x="290" y="235" type="line"/>
    </contour>
    <contour>
      <point x="290" y="235" type="line"/>
      <point x="290" y="235" type="line"/>
      <point x="290" y="177" type="line"/>
      <point x="348" y="177" type="line"/>
      <point x="348" y="235" type="line"/>
    </contour>
    <contour>
      <point x="233" y="177" type="line"/>
      <point x="233" y="177" type="line"/>
      <point x="233" y="120" type="line"/>
      <point x="290" y="120" type="line"/>
      <point x="290" y="177" type="line"/>
    </contour>
    <contour>
      <point x="290" y="177" type="line"/>
      <point x="290" y="177" type="line"/>
      <point x="290" y="120" type="line"/>
      <point x="348" y="120" type="line"/>
      <point x="348" y="177" type="line"/>
    </contour>
    <contour>
      <point x="233" y="120" type="line"/>
      <point x="233" y="120" type="line"/>
      <point x="233" y="62" type="line"/>
      <point x="290" y="62" type="line"/>
      <point x="290" y="120" type="line"/>
    </contour>
    <contour>
      <point x="290" y="120" type="line"/>
      <point x="290" y="120" type="line"/>
      <point x="290" y="62" type="line"/>
      <point x="348" y="62" type="line"/>
      <point x="348" y="120" type="line"/>
    </contour>
    <contour>
      <point x="233" y="62" type="line"/>
      <point x="233" y="62" type="line"/>
      <point x="233" y="4" type="line"/>
      <point x="290" y="4" type="line"/>
      <point x="290" y="62" type="line"/>
    </contour>
    <contour>
      <point x="290" y="62" type="line"/>
      <point x="290" y="62" type="line"/>
      <point x="290" y="4" type="line"/>
      <point x="348" y="4" type="line"/>
      <point x="348" y="62" type="line"/>
    </contour>
  </outline>
</glyph>
<glyph name="two" format="2">
  <advance width="557"/>
  <unicode hex="0032"/>
  <outline>
    <contour>
      <point x="180" y="697" type="line"/>
      <point x="180" y="697" type="line"/>
      <point x="180" y="639" type="line"/>
      <point x="237" y="639" type="line"/>
      <point x="237" y="697" type="line"/>
    </contour>
    <contour>
      <point x="237" y="697" type="line"/>
      <point x="237" y="697" type="line"/>
      <point x="237" y="639" type="line"/>
      <point x="295" y="639" type="line"/>
      <point x="295" y="697" type="line"/>
    </contour>
    <contour>
      <point x="295" y="697" type="line"/>
      <point x="295" y="697" type="line"/>
      <point x="295" y="639" type="line"/>
      <point x="353" y="639" type="line"/>
      <point x="353" y="697" type="line"/>
    </contour>
    <contour>
      <point x="353" y="697" type="line"/>
      <point x="353" y="697" type="line"/>
      <point x="353" y="639" type="line"/>
      <point x="410" y="639" type="line"/>
      <point x="410" y="697" type="line"/>
    </contour>
    <contour>
      <point x="122" y="639" type="line"/>
      <point x="122" y="639" type="line"/>
      <point x="122" y="582" type="line"/>
      <point x="180" y="582" type="line"/>
      <point x="180" y="639" type="line"/>
    </contour>
    <contour>
      <point x="180" y="639" type="line"/>
      <point x="180" y="639" type="line"/>
      <point x="180" y="582" type="line"/>
      <point x="237" y="582" type="line"/>
      <point x="237" y="639" type="line"/>
    </contour>
    <contour>
      <point x="353" y="639" type="line"/>
      <point x="353" y="639" type="line"/>
      <point x="353" y="582" type="line"/>
      <point x="410" y="582" type="line"/>
      <point x="410" y="639" type="line"/>
    </contour>
    <contour>
      <point x="410" y="639" type="line"/>
      <point x="410" y="639" type="line"/>
      <point x="410" y="582" type="line"/>
      <point x="468" y="582" type="line"/>
      <point x="468" y="639" type="line"/>
    </contour>
    <contour>
      <point x="64" y="582" type="line"/>
      <point x="64" y="582" type="line"/>
      <point x="64" y="524" type="line"/>
      <point x="122" y="524" type="line"/>
      <point x="122" y="582" type="line"/>
    </contour>
    <contour>
      <point x="122" y="582" type="line"/>
      <point x="122" y="582" type="line"/>
      <point x="122" y="524" type="line"/>
      <point x="180" y="524" type="line"/>
      <point x="180" y="582" type="line"/>
    </contour>
    <contour>
      <point x="410" y="582" type="line"/>
      <point x="410" y="582" type="line"/>
      <point x="410" y="524" type="line"/>
      <point x="468" y="524" type="line"/>
      <point x="468" y="582" type="line"/>
    </contour>
    <contour>
      <point x="468" y="582" type="line"/>
      <point x="468" y="582" type="line"/>
      <point x="468" y="524" type="line"/>
      <point x="526" y="524" type="line"/>
      <point x="526" y="582" type="line"/>
    </contour>
    <contour>
      <point x="410" y="524" type="line"/>
      <point x="410" y="524" type="line"/>
      <point x="410" y="466" type="line"/>
      <point x="468" y="466" type="line"/>
      <point x="468" y="524" type="line"/>
    </contour>
    <contour>
      <point x="468" y="524" type="line"/>
      <point x="468" y="524" type="line"/>
      <point x="468" y="466" type="line"/>
      <point x="526" y="466" type="line"/>
      <point x="526" y="524" type="line"/>
    </contour>
    <contour>
      <point x="410" y="466" type="line"/>
      <point x="410" y="466" type="line"/>
      <point x="410" y="409" type="line"/>
      <point x="468" y="409" type="line"/>
      <point x="468" y="466" type="line"/>
    </contour>
    <contour>
      <point x="468" y="466" type="line"/>
      <point x="468" y="466" type="line"/>
      <point x="468" y="409" type="line"/>
      <point x="526" y="409" type="line"/>
      <point x="526" y="466" type="line"/>
    </contour>
    <contour>
      <point x="353" y="409" type="line"/>
      <point x="353" y="409" type="line"/>
      <point x="353" y="351" type="line"/>
      <point x="410" y="351" type="line"/>
      <point x="410" y="409" type="line"/>
    </contour>
    <contour>
      <point x="410" y="409" type="line"/>
      <point x="410" y="409" type="line"/>
      <point x="410" y="351" type="line"/>
      <point x="468" y="351" type="line"/>
      <point x="468" y="409" type="line"/>
    </contour>
    <contour>
      <point x="353" y="351" type="line"/>
      <point x="353" y="351" type="line"/>
      <point x="353" y="293" type="line"/>
      <point x="410" y="293" type="line"/>
      <point x="410" y="351" type="line"/>
    </contour>
    <contour>
      <point x="410" y="351" type="line"/>
      <point x="410" y="351" type="line"/>
      <point x="410" y="293" type="line"/>
      <point x="468" y="293" type="line"/>
      <point x="468" y="351" type="line"/>
    </contour>
    <contour>
      <point x="295" y="293" type="line"/>
      <point x="295" y="293" type="line"/>
      <point x="295" y="236" type="line"/>
      <point x="353" y="236" type="line"/>
      <point x="353" y="293" type="line"/>
    </contour>
    <contour>
      <point x="353" y="293" type="line"/>
      <point x="353" y="293" type="line"/>
      <point x="353" y="236" type="line"/>
      <point x="410" y="236" type="line"/>
      <point x="410" y="293" type="line"/>
    </contour>
    <contour>
      <point x="237" y="236" type="line"/>
      <point x="237" y="236" type="line"/>
      <point x="237" y="178" type="line"/>
      <point x="295" y="178" type="line"/>
      <point x="295" y="236" type="line"/>
    </contour>
    <contour>
      <point x="295" y="236" type="line"/>
      <point x="295" y="236" type="line"/>
      <point x="295" y="178" type="line"/>
      <point x="353" y="178" type="line"/>
      <point x="353" y="236" type="line"/>
    </contour>
    <contour>
      <point x="180" y="178" type="line"/>
      <point x="180" y="178" type="line"/>
      <point x="180" y="120" type="line"/>
      <point x="237" y="120" type="line"/>
      <point x="237" y="178" type="line"/>
    </contour>
    <contour>
      <point x="237" y="178" type="line"/>
      <point x="237" y="178" type="line"/>
      <point x="237" y="120" type="line"/>
      <point x="295" y="120" type="line"/>
      <point x="295" y="178" type="line"/>
    </contour>
    <contour>
      <point x="122" y="120" type="line"/>
      <point x="122" y="120" type="line"/>
      <point x="122" y="63" type="line"/>
      <point x="180" y="63" type="line"/>
      <point x="180" y="120" type="line"/>
    </contour>
    <contour>
      <point x="180" y="120" type="line"/>
      <point x="180" y="120" type="line"/>
      <point x="180" y="63" type="line"/>
      <point x="237" y="63" type="line"/>
      <point x="237" y="120" type="line"/>
    </contour>
    <contour>
      <point x="64" y="63" type="line"/>
      <point x="64" y="63" type="line"/>
      <point x="64" y="5" type="line"/>
      <point x="122" y="5" type="line"/>
      <point x="122" y="63" type="line"/>
    </contour>
    <contour>
      <point x="122" y="63" type="line"/>
      <point x="122" y="63" type="line"/>
      <point x="122" y="5" type="line"/>
      <point x="180" y="5" type="line"/>
      <point x="180" y="63" type="line"/>
    </contour>
    <contour>
      <point x="180" y="63" type="line"/>
      <point x="180" y="63" type="line"/>
      <point x="180" y="5" type="line"/>
      <point x="237" y="5" type="line"/>
      <point x="237" y="63" type="line"/>
    </contour>
    <contour>
      <point x="237" y="63" type="line"/>
      <point x="237" y="63" type="line"/>
      <point x="237" y="5" type="line"/>
      <point x="295" y="5" type="line"/>
      <point x="295" y="63" type="line"/>
    </contour>
    <contour>
      <point x="295" y="63" type="line"/>
      <point x="295" y="63" type="line"/>
      <point x="295" y="5" type="line"/>
      <point x="353" y="5" type="line"/>
      <point x="353" y="63" type="line"/>
    </contour>
    <contour>
      <point x="353" y="63" type="line"/>
      <point x="353" y="63" type="line"/>
      <point x="353" y="5" type="line"/>
      <point x="410" y="5" type="line"/>
      <point x="410" y="63" type="line"/>
    </contour>
    <contour>
      <point x="410" y="63" type="line"/>
      <point x="410" y="63" type="line"/>
      <point x="410" y="5" type="line"/>
      <point x="468" y="5" type="line"/>
      <point x="468" y="63" type="line"/>
    </contour>
    <contour>
      <point x="468" y="63" type="line"/>
      <point x="468" y="63" type="line"/>
      <point x="468" y="5" type="line"/>
      <point x="526" y="5" type="line"/>
      <point x="526" y="63" type="line"/>
    </contour>
  </outline>
</glyph>
<glyph name="three" format="2">
  <advance width="557"/>
  <unicode hex="0033"/>
  <outline>
    <contour>
      <point x="180" y="697" type="line"/>
      <point x="180" y="697" type="line"/>
      <point x="180" y="639" type="line"/>
      <point x="237" y="639" type="line"/>
      <point x="237" y="697" type="line"/>
    </contour>
    <contour>
      <point x="237" y="697" type="line"/>
      <point x="237" y="697" type="line"/>
      <point x="237" y="639" type="line"/>
      <point x="295" y="639" type="line"/>
      <point x="295" y="697" type="line"/>
    </contour>
    <contour>
      <point x="295" y="697" type="line"/>
      <point x="295" y="697" type="line"/>
      <point x="295" y="639" type="line"/>
      <point x="353" y="639" type="line"/>
      <point x="353" y="697" type="line"/>
    </contour>
    <contour>
      <point x="353" y="697" type="line"/>
      <point x="353" y="697" type="line"/>
      <point x="353" y="639" type="line"/>
      <point x="410" y="639" type="line"/>
      <point x="410" y="697" type="line"/>
    </contour>
    <contour>
      <point x="122" y="639" type="line"/>
      <point x="122" y="639" type="line"/>
      <point x="122" y="582" type="line"/>
      <point x="180" y="582" type="line"/>
      <point x="180" y="639" type="line"/>
    </contour>
    <contour>
      <point x="180" y="639" type="line"/>
      <point x="180" y="639" type="line"/>
      <point x="180" y="582" type="line"/>
      <point x="237" y="582" type="line"/>
      <point x="237" y="639" type="line"/>
    </contour>
    <contour>
      <point x="353" y="639" type="line"/>
      <point x="353" y="639" type="line"/>
      <point x="353" y="582" type="line"/>
      <point x="410" y="582" type="line"/>
      <point x="410" y="639" type="line"/>
    </contour>
    <contour>
      <point x="410" y="639" type="line"/>
      <point x="410" y="639" type="line"/>
      <point x="410" y="582" type="line"/>
      <point x="468" y="582" type="line"/>
      <point x="468" y="639" type="line"/>
    </contour>
    <contour>
      <point x="64" y="582" type="line"/>
      <point x="64" y="582" type="line"/>
      <point x="64" y="524" type="line"/>
      <point x="122" y="524" type="line"/>
      <point x="122" y="582" type="line"/>
    </contour>
    <contour>
      <point x="122" y="582" type="line"/>
      <point x="122" y="582" type="line"/>
      <point x="122" y="524" type="line"/>
      <point x="180" y="524" type="line"/>
      <point x="180" y="582" type="line"/>
    </contour>
    <contour>
      <point x="353" y="582" type="line"/>
      <point x="353" y="582" type="line"/>
      <point x="353" y="524" type="line"/>
      <point x="410" y="524" type="line"/>
      <point x="410" y="582" type="line"/>
    </contour>
    <contour>
      <point x="410" y="582" type="line"/>
      <point x="410" y="582" type="line"/>
      <point x="410" y="524" type="line"/>
      <point x="468" y="524" type="line"/>
      <point x="468" y="582" type="line"/>
    </contour>
    <contour>
      <point x="353" y="524" type="line"/>
      <point x="353" y="524" type="line"/>
      <point x="353" y="466" type="line"/>
      <point x="410" y="466" type="line"/>
      <point x="410" y="524" type="line"/>
    </contour>
    <contour>
      <point x="410" y="524" type="line"/>
      <point x="410" y="524" type="line"/>
      <point x="410" y="466" type="line"/>
      <point x="468" y="466" type="line"/>
      <point x="468" y="524" type="line"/>
    </contour>
    <contour>
      <point x="295" y="466" type="line"/>
      <point x="295" y="466" type="line"/>
      <point x="295" y="408" type="line"/>
      <point x="353" y="408" type="line"/>
      <point x="353" y="466" type="line"/>
    </contour>
    <contour>
      <point x="353" y="466" type="line"/>
      <point x="353" y="466" type="line"/>
      <point x="353" y="408" type="line"/>
      <point x="410" y="408" type="line"/>
      <point x="410" y="466" type="line"/>
    </contour>
    <contour>
      <point x="180" y="408" type="line"/>
      <point x="180" y="408" type="line"/>
      <point x="180" y="351" type="line"/>
      <point x="237" y="351" type="line"/>
      <point x="237" y="408" type="line"/>
    </contour>
    <contour>
      <point x="237" y="408" type="line"/>
      <point x="237" y="408" type="line"/>
      <point x="237" y="351" type="line"/>
      <point x="295" y="351" type="line"/>
      <point x="295" y="408" type="line"/>
    </contour>
    <contour>
      <point x="295" y="408" type="line"/>
      <point x="295" y="408" type="line"/>
      <point x="295" y="351" type="line"/>
      <point x="353" y="351" type="line"/>
      <point x="353" y="408" type="line"/>
    </contour>
    <contour>
      <point x="353" y="408" type="line"/>
      <point x="353" y="408" type="line"/>
      <point x="353" y="351" type="line"/>
      <point x="410" y="351" type="line"/>
      <point x="410" y="408" type="line"/>
    </contour>
    <contour>
      <point x="353" y="351" type="line"/>
      <point x="353" y="351" type="line"/>
      <point x="353" y="293" type="line"/>
      <point x="410" y="293" type="line"/>
      <point x="410" y="351" type="line"/>
    </contour>
    <contour>
      <point x="410" y="351" type="line"/>
      <point x="410" y="351" type="line"/>
      <point x="410" y="293" type="line"/>
      <point x="468" y="293" type="line"/>
      <point x="468" y="351" type="line"/>
    </contour>
    <contour>
      <point x="410" y="293" type="line"/>
      <point x="410" y="293" type="line"/>
      <point x="410" y="235" type="line"/>
      <point x="468" y="235" type="line"/>
      <point x="468" y="293" type="line"/>
    </contour>
    <contour>
      <point x="468" y="293" type="line"/>
      <point x="468" y="293" type="line"/>
      <point x="468" y="235" type="line"/>
      <point x="526" y="235" type="line"/>
      <point x="526" y="293" type="line"/>
    </contour>
    <contour>
      <point x="410" y="235" type="line"/>
      <point x="410" y="235" type="line"/>
      <point x="410" y="178" type="line"/>
      <point x="468" y="178" type="line"/>
      <point x="468" y="235" type="line"/>
    </contour>
    <contour>
      <point x="468" y="235" type="line"/>
      <point x="468" y="235" type="line"/>
      <point x="468" y="178" type="line"/>
      <point x="526" y="178" type="line"/>
      <point x="526" y="235" type="line"/>
    </contour>
    <contour>
      <point x="64" y="178" type="line"/>
      <point x="64" y="178" type="line"/>
      <point x="64" y="120" type="line"/>
      <point x="122" y="120" type="line"/>
      <point x="122" y="178" type="line"/>
    </contour>
    <contour>
      <point x="122" y="178" type="line"/>
      <point x="122" y="178" type="line"/>
      <point x="122" y="120" type="line"/>
      <point x="180" y="120" type="line"/>
      <point x="180" y="178" type="line"/>
    </contour>
    <contour>
      <point x="410" y="178" type="line"/>
      <point x="410" y="178" type="line"/>
      <point x="410" y="120" type="line"/>
      <point x="468" y="120" type="line"/>
      <point x="468" y="178" type="line"/>
    </contour>
    <contour>
      <point x="468" y="178" type="line"/>
      <point x="468" y="178" type="line"/>
      <point x="468" y="120" type="line"/>
      <point x="526" y="120" type="line"/>
      <point x="526" y="178" type="line"/>
    </contour>
    <contour>
      <point x="64" y="120" type="line"/>
      <point x="64" y="120" type="line"/>
      <point x="64" y="62" type="line"/>
      <point x="122" y="62" type="line"/>
      <point x="122" y="120" type="line"/>
    </contour>
    <contour>
      <point x="122" y="120" type="line"/>
      <point x="122" y="120" type="line"/>
      <point x="122" y="62" type="line"/>
      <point x="180" y="62" type="line"/>
      <point x="180" y="120" type="line"/>
    </contour>
    <contour>
      <point x="180" y="120" type="line"/>
      <point x="180" y="120" type="line"/>
      <point x="180" y="62" type="line"/>
      <point x="237" y="62" type="line"/>
      <point x="237" y="120" type="line"/>
    </contour>
    <contour>
      <point x="353" y="120" type="line"/>
      <point x="353" y="120" type="line"/>
      <point x="353" y="62" type="line"/>
      <point x="410" y="62" type="line"/>
      <point x="410" y="120" type="line"/>
    </contour>
    <contour>
      <point x="410" y="120" type="line"/>
      <point x="410" y="120" type="line"/>
      <point x="410" y="62" type="line"/>
      <point x="468" y="62" type="line"/>
      <point x="468" y="120" type="line"/>
    </contour>
    <contour>
      <point x="180" y="62" type="line"/>
      <point x="180" y="62" type="line"/>
      <point x="180" y="4" type="line"/>
      <point x="237" y="4" type="line"/>
      <point x="237" y="62" type="line"/>
    </contour>
    <contour>
      <point x="237" y="62" type="line"/>
      <point x="237" y="62" type="line"/>
      <point x="237" y="4" type="line"/>
      <point x="295" y="4" type="line"/>
      <point x="295" y="62" type="line"/>
    </contour>
    <contour>
      <point x="295" y="62" type="line"/>
      <point x="295" y="62" type="line"/>
      <point x="295" y="4" type="line"/>
      <point x="353" y="4" type="line"/>
      <point x="353" y="62" type="line"/>
    </contour>
    <contour>
      <point x="353" y="62" type="line"/>
      <point x="353" y="62" type="line"/>
      <point x="353" y="4" type="line"/>
      <point x="410" y="4" type="line"/>
      <point x="410" y="62" type="line"/>
    </contour>
  </outline>
</glyph>
<glyph name="four" format="2">
  <advance width="613"/>
  <unicode hex="0034"/>
  <outline>
    <contour>
      <point x="352" y="697" type="line"/>
      <point x="352" y="697" type="line"/>
      <point x="352" y="640" type="line"/>
      <point x="410" y="640" type="line"/>
      <point x="410" y="697" type="line"/>
    </contour>
    <contour>
      <point x="410" y="697" type="line"/>
      <point x="410" y="697" type="line"/>
      <point x="410" y="640" type="line"/>
      <point x="467" y="640" type="line"/>
      <point x="467" y="697" type="line"/>
    </contour>
    <contour>
      <point x="295" y="640" type="line"/>
      <point x="295" y="640" type="line"/>
      <point x="295" y="582" type="line"/>
      <point x="352" y="582" type="line"/>
      <point x="352" y="640" type="line"/>
    </contour>
    <contour>
      <point x="352" y="640" type="line"/>
      <point x="352" y="640" type="line"/>
      <point x="352" y="582" type="line"/>
      <point x="410" y="582" type="line"/>
      <point x="410" y="640" type="line"/>
    </contour>
    <contour>
      <point x="410" y="640" type="line"/>
      <point x="410" y="640" type="line"/>
      <point x="410" y="582" type="line"/>
      <point x="467" y="582" type="line"/>
      <point x="467" y="640" type="line"/>
    </contour>
    <contour>
      <point x="237" y="582" type="line"/>
      <point x="237" y="582" type="line"/>
      <point x="237" y="525" type="line"/>
      <point x="295" y="525" type="line"/>
      <point x="295" y="582" type="line"/>
    </contour>
    <contour>
      <point x="295" y="582" type="line"/>
      <point x="295" y="582" type="line"/>
      <point x="295" y="525" type="line"/>
      <point x="352" y="525" type="line"/>
      <point x="352" y="582" type="line"/>
    </contour>
    <contour>
      <point x="352" y="582" type="line"/>
      <point x="352" y="582" type="line"/>
      <point x="352" y="525" type="line"/>
      <point x="410" y="525" type="line"/>
      <point x="410" y="582" type="line"/>
    </contour>
    <contour>
      <point x="410" y="582" type="line"/>
      <point x="410" y="582" type="line"/>
      <point x="410" y="525" type="line"/>
      <point x="467" y="525" type="line"/>
      <point x="467" y="582" type="line"/>
    </contour>
    <contour>
      <point x="237" y="525" type="line"/>
      <point x="237" y="525" type="line"/>
      <point x="237" y="467" type="line"/>
      <point x="295" y="467" type="line"/>
      <point x="295" y="525" type="line"/>
    </contour>
    <contour>
      <point x="295" y="525" type="line"/>
      <point x="295" y="525" type="line"/>
      <point x="295" y="467" type="line"/>
      <point x="352" y="467" type="line"/>
      <point x="352" y="525" type="line"/>
    </contour>
    <contour>
      <point x="352" y="525" type="line"/>
      <point x="352" y="525" type="line"/>
      <point x="352" y="467" type="line"/>
      <point x="410" y="467" type="line"/>
      <point x="410" y="525" type="line"/>
    </contour>
    <contour>
      <point x="410" y="525" type="line"/>
      <point x="410" y="525" type="line"/>
      <point x="410" y="467" type="line"/>
      <point x="467" y="467" type="line"/>
      <point x="467" y="525" type="line"/>
    </contour>
    <contour>
      <point x="180" y="467" type="line"/>
      <point x="180" y="467" type="line"/>
      <point x="180" y="410" type="line"/>
      <point x="237" y="410" type="line"/>
      <point x="237" y="467" type="line"/>
    </contour>
    <contour>
      <point x="237" y="467" type="line"/>
      <point x="237" y="467" type="line"/>
      <point x="237" y="410" type="line"/>
      <point x="295" y="410" type="line"/>
      <point x="295" y="467" type="line"/>
    </contour>
    <contour>
      <point x="352" y="467" type="line"/>
      <point x="352" y="467" type="line"/>
      <point x="352" y="410" type="line"/>
      <point x="410" y="410" type="line"/>
      <point x="410" y="467" type="line"/>
    </contour>
    <contour>
      <point x="410" y="467" type="line"/>
      <point x="410" y="467" type="line"/>
      <point x="410" y="410" type="line"/>
      <point x="467" y="410" type="line"/>
      <point x="467" y="467" type="line"/>
    </contour>
    <contour>
      <point x="180" y="410" type="line"/>
      <point x="180" y="410" type="line"/>
      <point x="180" y="352" type="line"/>
      <point x="237" y="352" type="line"/>
      <point x="237" y="410" type="line"/>
    </contour>
    <contour>
      <point x="237" y="410" type="line"/>
      <point x="237" y="410" type="line"/>
      <point x="237" y="352" type="line"/>
      <point x="295" y="352" type="line"/>
      <point x="295" y="410" type="line"/>
    </contour>
    <contour>
      <point x="352" y="410" type="line"/>
      <point x="352" y="410" type="line"/>
      <point x="352" y="352" type="line"/>
      <point x="410" y="352" type="line"/>
      <point x="410" y="410" type="line"/>
    </contour>
    <contour>
      <point x="410" y="410" type="line"/>
      <point x="410" y="410" type="line"/>
      <point x="410" y="352" type="line"/>
      <point x="467" y="352" type="line"/>
      <point x="467" y="410" type="line"/>
    </contour>
    <contour>
      <point x="122" y="352" type="line"/>
      <point x="122" y="352" type="line"/>
      <point x="122" y="295" type="line"/>
      <point x="180" y="295" type="line"/>
      <point x="180" y="352" type="line"/>
    </contour>
    <contour>
      <point x="180" y="352" type="line"/>
      <point x="180" y="352" type="line"/>
      <point x="180" y="295" type="line"/>
      <point x="237" y="295" type="line"/>
      <point x="237" y="352" type="line"/>
    </contour>
    <contour>
      <point x="352" y="352" type="line"/>
      <point x="352" y="352" type="line"/>
      <point x="352" y="295" type="line"/>
      <point x="410" y="295" type="line"/>
      <point x="410" y="352" type="line"/>
    </contour>
    <contour>
      <point x="410" y="352" type="line"/>
      <point x="410" y="352" type="line"/>
      <point x="410" y="295" type="line"/>
      <point x="467" y="295" type="line"/>
      <point x="467" y="352" type="line"/>
    </contour>
    <contour>
      <point x="65" y="295" type="line"/>
      <point x="65" y="295" type="line"/>
      <point x="65" y="237" type="line"/>
      <point x="122" y="237" type="line"/>
      <point x="122" y="295" type="line"/>
    </contour>
    <contour>
      <point x="122" y="295" type="line"/>
      <point x="122" y="295" type="line"/>
      <point x="122" y="237" type="line"/>
      <point x="180" y="237" type="line"/>
      <point x="180" y="295" type="line"/>
    </contour>
    <contour>
      <point x="352" y="295" type="line"/>
      <point x="352" y="295" type="line"/>
      <point x="352" y="237" type="line"/>
      <point x="410" y="237" type="line"/>
      <point x="410" y="295" type="line"/>
    </contour>
    <contour>
      <point x="410" y="295" type="line"/>
      <point x="410" y="295" type="line"/>
      <point x="410" y="237" type="line"/>
      <point x="467" y="237" type="line"/>
      <point x="467" y="295" type="line"/>
    </contour>
    <contour>
      <point x="65" y="237" type="line"/>
      <point x="65" y="237" type="line"/>
      <point x="65" y="180" type="line"/>
      <point x="122" y="180" type="line"/>
      <point x="122" y="237" type="line"/>
    </contour>
    <contour>
      <point x="122" y="237" type="line"/>
      <point x="122" y="237" type="line"/>
      <point x="122" y="180" type="line"/>
      <point x="180" y="180" type="line"/>
      <point x="180" y="237" type="line"/>
    </contour>
    <contour>
      <point x="180" y="237" type="line"/>
      <point x="180" y="237" type="line"/>
      <point x="180" y="180" type="line"/>
      <point x="237" y="180" type="line"/>
      <point x="237" y="237" type="line"/>
    </contour>
    <contour>
      <point x="237" y="237" type="line"/>
      <point x="237" y="237" type="line"/>
      <point x="237" y="180" type="line"/>
      <point x="295" y="180" type="line"/>
      <point x="295" y="237" type="line"/>
    </contour>
    <contour>
      <point x="295" y="237" type="line"/>
      <point x="295" y="237" type="line"/>
      <point x="295" y="180" type="line"/>
      <point x="352" y="180" type="line"/>
      <point x="352" y="237" type="line"/>
    </contour>
    <contour>
      <point x="352" y="237" type="line"/>
      <point x="352" y="237" type="line"/>
      <point x="352" y="180" type="line"/>
      <point x="410" y="180" type="line"/>
      <point x="410" y="237" type="line"/>
    </contour>
    <contour>
      <point x="410" y="237" type="line"/>
      <point x="410" y="237" type="line"/>
      <point x="410" y="180" type="line"/>
      <point x="467" y="180" type="line"/>
      <point x="467" y="237" type="line"/>
    </contour>
    <contour>
      <point x="467" y="237" type="line"/>
      <point x="467" y="237" type="line"/>
      <point x="467" y="180" type="line"/>
      <point x="525" y="180" type="line"/>
      <point x="525" y="237" type="line"/>
    </contour>
    <contour>
      <point x="525" y="237" type="line"/>
      <point x="525" y="237" type="line"/>
      <point x="525" y="180" type="line"/>
      <point x="582" y="180" type="line"/>
      <point x="582" y="237" type="line"/>
    </contour>
    <contour>
      <point x="352" y="180" type="line"/>
      <point x="352" y="180" type="line"/>
      <point x="352" y="122" type="line"/>
      <point x="410" y="122" type="line"/>
      <point x="410" y="180" type="line"/>
    </contour>
    <contour>
      <point x="410" y="180" type="line"/>
      <point x="410" y="180" type="line"/>
      <point x="410" y="122" type="line"/>
      <point x="467" y="122" type="line"/>
      <point x="467" y="180" type="line"/>
    </contour>
    <contour>
      <point x="352" y="122" type="line"/>
      <point x="352" y="122" type="line"/>
      <point x="352" y="65" type="line"/>
      <point x="410" y="65" type="line"/>
      <point x="410" y="122" type="line"/>
    </contour>
    <contour>
      <point x="410" y="122" type="line"/>
      <point x="410" y="122" type="line"/>
      <point x="410" y="65" type="line"/>
      <point x="467" y="65" type="line"/>
      <point x="467" y="122" type="line"/>
    </contour>
    <contour>
      <point x="352" y="65" type="line"/>
      <point x="352" y="65" type="line"/>
      <point x="352" y="7" type="line"/>
      <point x="410" y="7" type="line"/>
      <point x="410" y="65" type="line"/>
    </contour>
    <contour>
      <point x="410" y="65" type="line"/>
      <point x="410" y="65" type="line"/>
      <point x="410" y="7" type="line"/>
      <point x="467" y="7" type="line"/>
      <point x="467" y="65" type="line"/>
    </contour>
  </outline>
</glyph>
<glyph name="five" format="2">
  <advance width="556"/>
  <unicode hex="0035"/>
  <outline>
    <contour>
      <point x="121" y="697" type="line"/>
      <point x="121" y="697" type="line"/>
      <point x="121" y="640" type="line"/>
      <point x="179" y="640" type="line"/>
      <point x="179" y="697" type="line"/>
    </contour>
    <contour>
      <point x="179" y="697" type="line"/>
      <point x="179" y="697" type="line"/>
      <point x="179" y="640" type="line"/>
      <point x="237" y="640" type="line"/>
      <point x="237" y="697" type="line"/>
    </contour>
    <contour>
      <point x="237" y="697" type="line"/>
      <point x="237" y="697" type="line"/>
      <point x="237" y="640" type="line"/>
      <point x="294" y="640" type="line"/>
      <point x="294" y="697" type="line"/>
    </contour>
    <contour>
      <point x="294" y="697" type="line"/>
      <point x="294" y="697" type="line"/>
      <point x="294" y="640" type="line"/>
      <point x="352" y="640" type="line"/>
      <point x="352" y="697" type="line"/>
    </contour>
    <contour>
      <point x="352" y="697" type="line"/>
      <point x="352" y="697" type="line"/>
      <point x="352" y="640" type="line"/>
      <point x="409" y="640" type="line"/>
      <point x="409" y="697" type="line"/>
    </contour>
    <contour>
      <point x="409" y="697" type="line"/>
      <point x="409" y="697" type="line"/>
      <point x="409" y="640" type="line"/>
      <point x="467" y="640" type="line"/>
      <point x="467" y="697" type="line"/>
    </contour>
    <contour>
      <point x="467" y="697" type="line"/>
      <point x="467" y="697" type="line"/>
      <point x="467" y="640" type="line"/>
      <point x="525" y="640" type="line"/>
      <point x="525" y="697" type="line"/>
    </contour>
    <contour>
      <point x="121" y="640" type="line"/>
      <point x="121" y="640" type="line"/>
      <point x="121" y="582" type="line"/>
      <point x="179" y="582" type="line"/>
      <point x="179" y="640" type="line"/>
    </contour>
    <contour>
      <point x="179" y="640" type="line"/>
      <point x="179" y="640" type="line"/>
      <point x="179" y="582" type="line"/>
      <point x="237" y="582" type="line"/>
      <point x="237" y="640" type="line"/>
    </contour>
    <contour>
      <point x="121" y="582" type="line"/>
      <point x="121" y="582" type="line"/>
      <point x="121" y="524" type="line"/>
      <point x="179" y="524" type="line"/>
      <point x="179" y="582" type="line"/>
    </contour>
    <contour>
      <point x="179" y="582" type="line"/>
      <point x="179" y="582" type="line"/>
      <point x="179" y="524" type="line"/>
      <point x="237" y="524" type="line"/>
      <point x="237" y="582" type="line"/>
    </contour>
    <contour>
      <point x="64" y="524" type="line"/>
      <point x="64" y="524" type="line"/>
      <point x="64" y="467" type="line"/>
      <point x="121" y="467" type="line"/>
      <point x="121" y="524" type="line"/>
    </contour>
    <contour>
      <point x="121" y="524" type="line"/>
      <point x="121" y="524" type="line"/>
      <point x="121" y="467" type="line"/>
      <point x="179" y="467" type="line"/>
      <point x="179" y="524" type="line"/>
    </contour>
    <contour>
      <point x="64" y="467" type="line"/>
      <point x="64" y="467" type="line"/>
      <point x="64" y="409" type="line"/>
      <point x="121" y="409" type="line"/>
      <point x="121" y="467" type="line"/>
    </contour>
    <contour>
      <point x="121" y="467" type="line"/>
      <point x="121" y="467" type="line"/>
      <point x="121" y="409" type="line"/>
      <point x="179" y="409" type="line"/>
      <point x="179" y="467" type="line"/>
    </contour>
    <contour>
      <point x="179" y="467" type="line"/>
      <point x="179" y="467" type="line"/>
      <point x="179" y="409" type="line"/>
      <point x="237" y="409" type="line"/>
      <point x="237" y="467" type="line"/>
    </contour>
    <contour>
      <point x="237" y="467" type="line"/>
      <point x="237" y="467" type="line"/>
      <point x="237" y="409" type="line"/>
      <point x="294" y="409" type="line"/>
      <point x="294" y="467" type="line"/>
    </contour>
    <contour>
      <point x="294" y="467" type="line"/>
      <point x="294" y="467" type="line"/>
      <point x="294" y="409" type="line"/>
      <point x="352" y="409" type="line"/>
      <point x="352" y="467" type="line"/>
    </contour>
    <contour>
      <point x="352" y="467" type="line"/>
      <point x="352" y="467" type="line"/>
      <point x="352" y="409" type="line"/>
      <point x="409" y="409" type="line"/>
      <point x="409" y="467" type="line"/>
    </contour>
    <contour>
      <point x="64" y="409" type="line"/>
      <point x="64" y="409" type="line"/>
      <point x="64" y="351" type="line"/>
      <point x="121" y="351" type="line"/>
      <point x="121" y="409" type="line"/>
    </contour>
    <contour>
      <point x="121" y="409" type="line"/>
      <point x="121" y="409" type="line"/>
      <point x="121" y="351" type="line"/>
      <point x="179" y="351" type="line"/>
      <point x="179" y="409" type="line"/>
    </contour>
    <contour>
      <point x="352" y="409" type="line"/>
      <point x="352" y="409" type="line"/>
      <point x="352" y="351" type="line"/>
      <point x="409" y="351" type="line"/>
      <point x="409" y="409" type="line"/>
    </contour>
    <contour>
      <point x="409" y="409" type="line"/>
      <point x="409" y="409" type="line"/>
      <point x="409" y="351" type="line"/>
      <point x="467" y="351" type="line"/>
      <point x="467" y="409" type="line"/>
    </contour>
    <contour>
      <point x="409" y="351" type="line"/>
      <point x="409" y="351" type="line"/>
      <point x="409" y="294" type="line"/>
      <point x="467" y="294" type="line"/>
      <point x="467" y="351" type="line"/>
    </contour>
    <contour>
      <point x="467" y="351" type="line"/>
      <point x="467" y="351" type="line"/>
      <point x="467" y="294" type="line"/>
      <point x="525" y="294" type="line"/>
      <point x="525" y="351" type="line"/>
    </contour>
    <contour>
      <point x="409" y="294" type="line"/>
      <point x="409" y="294" type="line"/>
      <point x="409" y="236" type="line"/>
      <point x="467" y="236" type="line"/>
      <point x="467" y="294" type="line"/>
    </contour>
    <contour>
      <point x="467" y="294" type="line"/>
      <point x="467" y="294" type="line"/>
      <point x="467" y="236" type="line"/>
      <point x="525" y="236" type="line"/>
      <point x="525" y="294" type="line"/>
    </contour>
    <contour>
      <point x="409" y="236" type="line"/>
      <point x="409" y="236" type="line"/>
      <point x="409" y="178" type="line"/>
      <point x="467" y="178" type="line"/>
      <point x="467" y="236" type="line"/>
    </contour>
    <contour>
      <point x="467" y="236" type="line"/>
      <point x="467" y="236" type="line"/>
      <point x="467" y="178" type="line"/>
      <point x="525" y="178" type="line"/>
      <point x="525" y="236" type="line"/>
    </contour>
    <contour>
      <point x="64" y="178" type="line"/>
      <point x="64" y="178" type="line"/>
      <point x="64" y="121" type="line"/>
      <point x="121" y="121" type="line"/>
      <point x="121" y="178" type="line"/>
    </contour>
    <contour>
      <point x="121" y="178" type="line"/>
      <point x="121" y="178" type="line"/>
      <point x="121" y="121" type="line"/>
      <point x="179" y="121" type="line"/>
      <point x="179" y="178" type="line"/>
    </contour>
    <contour>
      <point x="409" y="178" type="line"/>
      <point x="409" y="178" type="line"/>
      <point x="409" y="121" type="line"/>
      <point x="467" y="121" type="line"/>
      <point x="467" y="178" type="line"/>
    </contour>
    <contour>
      <point x="467" y="178" type="line"/>
      <point x="467" y="178" type="line"/>
      <point x="467" y="121" type="line"/>
      <point x="525" y="121" type="line"/>
      <point x="525" y="178" type="line"/>
    </contour>
    <contour>
      <point x="121" y="121" type="line"/>
      <point x="121" y="121" type="line"/>
      <point x="121" y="63" type="line"/>
      <point x="179" y="63" type="line"/>
      <point x="179" y="121" type="line"/>
    </contour>
    <contour>
      <point x="179" y="121" type="line"/>
      <point x="179" y="121" type="line"/>
      <point x="179" y="63" type="line"/>
      <point x="237" y="63" type="line"/>
      <point x="237" y="121" type="line"/>
    </contour>
    <contour>
      <point x="352" y="121" type="line"/>
      <point x="352" y="121" type="line"/>
      <point x="352" y="63" type="line"/>
      <point x="409" y="63" type="line"/>
      <point x="409" y="121" type="line"/>
    </contour>
    <contour>
      <point x="409" y="121" type="line"/>
      <point x="409" y="121" type="line"/>
      <point x="409" y="63" type="line"/>
      <point x="467" y="63" type="line"/>
      <point x="467" y="121" type="line"/>
    </contour>
    <contour>
      <point x="179" y="63" type="line"/>
      <point x="179" y="63" type="line"/>
      <point x="179" y="5" type="line"/>
      <point x="237" y="5" type="line"/>
      <point x="237" y="63" type="line"/>
    </contour>
    <contour>
      <point x="237" y="63" type="line"/>
      <point x="237" y="63" type="line"/>
      <point x="237" y="5" type="line"/>
      <point x="294" y="5" type="line"/>
      <point x="294" y="63" type="line"/>
    </contour>
    <contour>
      <point x="294" y="63" type="line"/>
      <point x="294" y="63" type="line"/>
      <point x="294" y="5" type="line"/>
      <point x="352" y="5" type="line"/>
      <point x="352" y="63" type="line"/>
    </contour>
    <contour>
      <point x="352" y="63" type="line"/>
      <point x="352" y="63" type="line"/>
      <point x="352" y="5" type="line"/>
      <point x="409" y="5" type="line"/>
      <point x="409" y="63" type="line"/>
    </contour>
  </outline>
</glyph>
<glyph name="six" format="2">
  <advance width="557"/>
  <unicode hex="0036"/>
  <outline>
    <contour>
      <point x="180" y="697" type="line"/>
      <point x="180" y="697" type="line"/>
      <point x="180" y="639" type="line"/>
      <point x="237" y="639" type="line"/>
      <point x="237" y="697" type="line"/>
    </contour>
    <contour>
      <point x="237" y="697" type="line"/>
      <point x="237" y="697" type="line"/>
      <point x="237" y="639" type="line"/>
      <point x="295" y="639" type="line"/>
      <point x="295" y="697" type="line"/>
    </contour>
    <contour>
      <point x="295" y="697" type="line"/>
      <point x="295" y="697" type="line"/>
      <point x="295" y="639" type="line"/>
      <point x="353" y="639" type="line"/>
      <point x="353" y="697" type="line"/>
    </contour>
    <contour>
      <point x="353" y="697" type="line"/>
      <point x="353" y="697" type="line"/>
      <point x="353" y="639" type="line"/>
      <point x="410" y="639" type="line"/>
      <point x="410" y="697" type="line"/>
    </contour>
    <contour>
      <point x="122" y="639" type="line"/>
      <point x="122" y="639" type="line"/>
      <point x="122" y="582" type="line"/>
      <point x="180" y="582" type="line"/>
      <point x="180" y="639" type="line"/>
    </contour>
    <contour>
      <point x="180" y="639" type="line"/>
      <point x="180" y="639" type="line"/>
      <point x="180" y="582" type="line"/>
      <point x="237" y="582" type="line"/>
      <point x="237" y="639" type="line"/>
    </contour>
    <contour>
      <point x="353" y="639" type="line"/>
      <point x="353" y="639" type="line"/>
      <point x="353" y="582" type="line"/>
      <point x="410" y="582" type="line"/>
      <point x="410" y="639" type="line"/>
    </contour>
    <contour>
      <point x="410" y="639" type="line"/>
      <point x="410" y="639" type="line"/>
      <point x="410" y="582" type="line"/>
      <point x="468" y="582" type="line"/>
      <point x="468" y="639" type="line"/>
    </contour>
    <contour>
      <point x="64" y="582" type="line"/>
      <point x="64" y="582" type="line"/>
      <point x="64" y="524" type="line"/>
      <point x="122" y="524" type="line"/>
      <point x="122" y="582" type="line"/>
    </contour>
    <contour>
      <point x="122" y="582" type="line"/>
      <point x="122" y="582" type="line"/>
      <point x="122" y="524" type="line"/>
      <point x="180" y="524" type="line"/>
      <point x="180" y="582" type="line"/>
    </contour>
    <contour>
      <point x="64" y="524" type="line"/>
      <point x="64" y="524" type="line"/>
      <point x="64" y="466" type="line"/>
      <point x="122" y="466" type="line"/>
      <point x="122" y="524" type="line"/>
    </contour>
    <contour>
      <point x="122" y="524" type="line"/>
      <point x="122" y="524" type="line"/>
      <point x="122" y="466" type="line"/>
      <point x="180" y="466" type="line"/>
      <point x="180" y="524" type="line"/>
    </contour>
    <contour>
      <point x="64" y="466" type="line"/>
      <point x="64" y="466" type="line"/>
      <point x="64" y="409" type="line"/>
      <point x="122" y="409" type="line"/>
      <point x="122" y="466" type="line"/>
    </contour>
    <contour>
      <point x="122" y="466" type="line"/>
      <point x="122" y="466" type="line"/>
      <point x="122" y="409" type="line"/>
      <point x="180" y="409" type="line"/>
      <point x="180" y="466" type="line"/>
    </contour>
    <contour>
      <point x="180" y="466" type="line"/>
      <point x="180" y="466" type="line"/>
      <point x="180" y="409" type="line"/>
      <point x="237" y="409" type="line"/>
      <point x="237" y="466" type="line"/>
    </contour>
    <contour>
      <point x="237" y="466" type="line"/>
      <point x="237" y="466" type="line"/>
      <point x="237" y="409" type="line"/>
      <point x="295" y="409" type="line"/>
      <point x="295" y="466" type="line"/>
    </contour>
    <contour>
      <point x="295" y="466" type="line"/>
      <point x="295" y="466" type="line"/>
      <point x="295" y="409" type="line"/>
      <point x="353" y="409" type="line"/>
      <point x="353" y="466" type="line"/>
    </contour>
    <contour>
      <point x="353" y="466" type="line"/>
      <point x="353" y="466" type="line"/>
      <point x="353" y="409" type="line"/>
      <point x="410" y="409" type="line"/>
      <point x="410" y="466" type="line"/>
    </contour>
    <contour>
      <point x="64" y="409" type="line"/>
      <point x="64" y="409" type="line"/>
      <point x="64" y="351" type="line"/>
      <point x="122" y="351" type="line"/>
      <point x="122" y="409" type="line"/>
    </contour>
    <contour>
      <point x="122" y="409" type="line"/>
      <point x="122" y="409" type="line"/>
      <point x="122" y="351" type="line"/>
      <point x="180" y="351" type="line"/>
      <point x="180" y="409" type="line"/>
    </contour>
    <contour>
      <point x="180" y="409" type="line"/>
      <point x="180" y="409" type="line"/>
      <point x="180" y="351" type="line"/>
      <point x="237" y="351" type="line"/>
      <point x="237" y="409" type="line"/>
    </contour>
    <contour>
      <point x="353" y="409" type="line"/>
      <point x="353" y="409" type="line"/>
      <point x="353" y="351" type="line"/>
      <point x="410" y="351" type="line"/>
      <point x="410" y="409" type="line"/>
    </contour>
    <contour>
      <point x="410" y="409" type="line"/>
      <point x="410" y="409" type="line"/>
      <point x="410" y="351" type="line"/>
      <point x="468" y="351" type="line"/>
      <point x="468" y="409" type="line"/>
    </contour>
    <contour>
      <point x="64" y="351" type="line"/>
      <point x="64" y="351" type="line"/>
      <point x="64" y="293" type="line"/>
      <point x="122" y="293" type="line"/>
      <point x="122" y="351" type="line"/>
    </contour>
    <contour>
      <point x="122" y="351" type="line"/>
      <point x="122" y="351" type="line"/>
      <point x="122" y="293" type="line"/>
      <point x="180" y="293" type="line"/>
      <point x="180" y="351" type="line"/>
    </contour>
    <contour>
      <point x="410" y="351" type="line"/>
      <point x="410" y="351" type="line"/>
      <point x="410" y="293" type="line"/>
      <point x="468" y="293" type="line"/>
      <point x="468" y="351" type="line"/>
    </contour>
    <contour>
      <point x="468" y="351" type="line"/>
      <point x="468" y="351" type="line"/>
      <point x="468" y="293" type="line"/>
      <point x="526" y="293" type="line"/>
      <point x="526" y="351" type="line"/>
    </contour>
    <contour>
      <point x="64" y="293" type="line"/>
      <point x="64" y="293" type="line"/>
      <point x="64" y="236" type="line"/>
      <point x="122" y="236" type="line"/>
      <point x="122" y="293" type="line"/>
    </contour>
    <contour>
      <point x="122" y="293" type="line"/>
      <point x="122" y="293" type="line"/>
      <point x="122" y="236" type="line"/>
      <point x="180" y="236" type="line"/>
      <point x="180" y="293" type="line"/>
    </contour>
    <contour>
      <point x="410" y="293" type="line"/>
      <point x="410" y="293" type="line"/>
      <point x="410" y="236" type="line"/>
      <point x="468" y="236" type="line"/>
      <point x="468" y="293" type="line"/>
    </contour>
    <contour>
      <point x="468" y="293" type="line"/>
      <point x="468" y="293" type="line"/>
      <point x="468" y="236" type="line"/>
      <point x="526" y="236" type="line"/>
      <point x="526" y="293" type="line"/>
    </contour>
    <contour>
      <point x="64" y="236" type="line"/>
      <point x="64" y="236" type="line"/>
      <point x="64" y="178" type="line"/>
      <point x="122" y="178" type="line"/>
      <point x="122" y="236" type="line"/>
    </contour>
    <contour>
      <point x="122" y="236" type="line"/>
      <point x="122" y="236" type="line"/>
      <point x="122" y="178" type="line"/>
      <point x="180" y="178" type="line"/>
      <point x="180" y="236" type="line"/>
    </contour>
    <contour>
      <point x="410" y="236" type="line"/>
      <point x="410" y="236" type="line"/>
      <point x="410" y="178" type="line"/>
      <point x="468" y="178" type="line"/>
      <point x="468" y="236" type="line"/>
    </contour>
    <contour>
      <point x="468" y="236" type="line"/>
      <point x="468" y="236" type="line"/>
      <point x="468" y="178" type="line"/>
      <point x="526" y="178" type="line"/>
      <point x="526" y="236" type="line"/>
    </contour>
    <contour>
      <point x="64" y="178" type="line"/>
      <point x="64" y="178" type="line"/>
      <point x="64" y="120" type="line"/>
      <point x="122" y="120" type="line"/>
      <point x="122" y="178" type="line"/>
    </contour>
    <contour>
      <point x="122" y="178" type="line"/>
      <point x="122" y="178" type="line"/>
      <point x="122" y="120" type="line"/>
      <point x="180" y="120" type="line"/>
      <point x="180" y="178" type="line"/>
    </contour>
    <contour>
      <point x="410" y="178" type="line"/>
      <point x="410" y="178" type="line"/>
      <point x="410" y="120" type="line"/>
      <point x="468" y="120" type="line"/>
      <point x="468" y="178" type="line"/>
    </contour>
    <contour>
      <point x="468" y="178" type="line"/>
      <point x="468" y="178" type="line"/>
      <point x="468" y="120" type="line"/>
      <point x="526" y="120" type="line"/>
      <point x="526" y="178" type="line"/>
    </contour>
    <contour>
      <point x="122" y="120" type="line"/>
      <point x="122" y="120" type="line"/>
      <point x="122" y="63" type="line"/>
      <point x="180" y="63" type="line"/>
      <point x="180" y="120" type="line"/>
    </contour>
    <contour>
      <point x="180" y="120" type="line"/>
      <point x="180" y="120" type="line"/>
      <point x="180" y="63" type="line"/>
      <point x="237" y="63" type="line"/>
      <point x="237" y="120" type="line"/>
    </contour>
    <contour>
      <point x="353" y="120" type="line"/>
      <point x="353" y="120" type="line"/>
      <point x="353" y="63" type="line"/>
      <point x="410" y="63" type="line"/>
      <point x="410" y="120" type="line"/>
    </contour>
    <contour>
      <point x="410" y="120" type="line"/>
      <point x="410" y="120" type="line"/>
      <point x="410" y="63" type="line"/>
      <point x="468" y="63" type="line"/>
      <point x="468" y="120" type="line"/>
    </contour>
    <contour>
      <point x="180" y="63" type="line"/>
      <point x="180" y="63" type="line"/>
      <point x="180" y="5" type="line"/>
      <point x="237" y="5" type="line"/>
      <point x="237" y="63" type="line"/>
    </contour>
    <contour>
      <point x="237" y="63" type="line"/>
      <point x="237" y="63" type="line"/>
      <point x="237" y="5" type="line"/>
      <point x="295" y="5" type="line"/>
      <point x="295" y="63" type="line"/>
    </contour>
    <contour>
      <point x="295" y="63" type="line"/>
      <point x="295" y="63" type="line"/>
      <point x="295" y="5" type="line"/>
      <point x="353" y="5" type="line"/>
      <point x="353" y="63" type="line"/>
    </contour>
    <contour>
      <point x="353" y="63" type="line"/>
      <point x="353" y="63" type="line"/>
      <point x="353" y="5" type="line"/>
      <point x="410" y="5" type="line"/>
      <point x="410" y="63" type="line"/>
    </contour>
  </outline>
</glyph>
<glyph name="seven" format="2">
  <advance width="555"/>
  <unicode hex="0037"/>
  <outline>
    <contour>
      <point x="64" y="697" type="line"/>
      <point x="64" y="697" type="line"/>
      <point x="64" y="640" type="line"/>
      <point x="121" y="640" type="line"/>
      <point x="121" y="697" type="line"/>
    </contour>
    <contour>
      <point x="121" y="697" type="line"/>
      <point x="121" y="697" type="line"/>
      <point x="121" y="640" type="line"/>
      <point x="179" y="640" type="line"/>
      <point x="179" y="697" type="line"/>
    </contour>
    <contour>
      <point x="179" y="697" type="line"/>
      <point x="179" y="697" type="line"/>
      <point x="179" y="640" type="line"/>
      <point x="237" y="640" type="line"/>
      <point x="237" y="697" type="line"/>
    </contour>
    <contour>
      <point x="237" y="697" type="line"/>
      <point x="237" y="697" type="line"/>
      <point x="237" y="640" type="line"/>
      <point x="294" y="640" type="line"/>
      <point x="294" y="697" type="line"/>
    </contour>
    <contour>
      <point x="294" y="697" type="line"/>
      <point x="294" y="697" type="line"/>
      <point x="294" y="640" type="line"/>
      <point x="352" y="640" type="line"/>
      <point x="352" y="697" type="line"/>
    </contour>
    <contour>
      <point x="352" y="697" type="line"/>
      <point x="352" y="697" type="line"/>
      <point x="352" y="640" type="line"/>
      <point x="410" y="640" type="line"/>
      <point x="410" y="697" type="line"/>
    </contour>
    <contour>
      <point x="410" y="697" type="line"/>
      <point x="410" y="697" type="line"/>
      <point x="410" y="640" type="line"/>
      <point x="467" y="640" type="line"/>
      <point x="467" y="697" type="line"/>
    </contour>
    <contour>
      <point x="467" y="697" type="line"/>
      <point x="467" y="697" type="line"/>
      <point x="467" y="640" type="line"/>
      <point x="525" y="640" type="line"/>
      <point x="525" y="697" type="line"/>
    </contour>
    <contour>
      <point x="352" y="640" type="line"/>
      <point x="352" y="640" type="line"/>
      <point x="352" y="582" type="line"/>
      <point x="410" y="582" type="line"/>
      <point x="410" y="640" type="line"/>
    </contour>
    <contour>
      <point x="410" y="640" type="line"/>
      <point x="410" y="640" type="line"/>
      <point x="410" y="582" type="line"/>
      <point x="467" y="582" type="line"/>
      <point x="467" y="640" type="line"/>
    </contour>
    <contour>
      <point x="352" y="582" type="line"/>
      <point x="352" y="582" type="line"/>
      <point x="352" y="524" type="line"/>
      <point x="410" y="524" type="line"/>
      <point x="410" y="582" type="line"/>
    </contour>
    <contour>
      <point x="410" y="582" type="line"/>
      <point x="410" y="582" type="line"/>
      <point x="410" y="524" type="line"/>
      <point x="467" y="524" type="line"/>
      <point x="467" y="582" type="line"/>
    </contour>
    <contour>
      <point x="294" y="524" type="line"/>
      <point x="294" y="524" type="line"/>
      <point x="294" y="467" type="line"/>
      <point x="352" y="467" type="line"/>
      <point x="352" y="524" type="line"/>
    </contour>
    <contour>
      <point x="352" y="524" type="line"/>
      <point x="352" y="524" type="line"/>
      <point x="352" y="467" type="line"/>
      <point x="410" y="467" type="line"/>
      <point x="410" y="524" type="line"/>
    </contour>
    <contour>
      <point x="294" y="467" type="line"/>
      <point x="294" y="467" type="line"/>
      <point x="294" y="409" type="line"/>
      <point x="352" y="409" type="line"/>
      <point x="352" y="467" type="line"/>
    </contour>
    <contour>
      <point x="352" y="467" type="line"/>
      <point x="352" y="467" type="line"/>
      <point x="352" y="409" type="line"/>
      <point x="410" y="409" type="line"/>
      <point x="410" y="467" type="line"/>
    </contour>
    <contour>
      <point x="237" y="409" type="line"/>
      <point x="237" y="409" type="line"/>
      <point x="237" y="351" type="line"/>
      <point x="294" y="351" type="line"/>
      <point x="294" y="409" type="line"/>
    </contour>
    <contour>
      <point x="294" y="409" type="line"/>
      <point x="294" y="409" type="line"/>
      <point x="294" y="351" type="line"/>
      <point x="352" y="351" type="line"/>
      <point x="352" y="409" type="line"/>
    </contour>
    <contour>
      <point x="237" y="351" type="line"/>
      <point x="237" y="351" type="line"/>
      <point x="237" y="294" type="line"/>
      <point x="294" y="294" type="line"/>
      <point x="294" y="351" type="line"/>
    </contour>
    <contour>
      <point x="294" y="351" type="line"/>
      <point x="294" y="351" type="line"/>
      <point x="294" y="294" type="line"/>
      <point x="352" y="294" type="line"/>
      <point x="352" y="351" type="line"/>
    </contour>
    <contour>
      <point x="237" y="294" type="line"/>
      <point x="237" y="294" type="line"/>
      <point x="237" y="236" type="line"/>
      <point x="294" y="236" type="line"/>
      <point x="294" y="294" type="line"/>
    </contour>
    <contour>
      <point x="294" y="294" type="line"/>
      <point x="294" y="294" type="line"/>
      <point x="294" y="236" type="line"/>
      <point x="352" y="236" type="line"/>
      <point x="352" y="294" type="line"/>
    </contour>
    <contour>
      <point x="237" y="236" type="line"/>
      <point x="237" y="236" type="line"/>
      <point x="237" y="178" type="line"/>
      <point x="294" y="178" type="line"/>
      <point x="294" y="236" type="line"/>
    </contour>
    <contour>
      <point x="294" y="236" type="line"/>
      <point x="294" y="236" type="line"/>
      <point x="294" y="178" type="line"/>
      <point x="352" y="178" type="line"/>
      <point x="352" y="236" type="line"/>
    </contour>
    <contour>
      <point x="179" y="178" type="line"/>
      <point x="179" y="178" type="line"/>
      <point x="179" y="121" type="line"/>
      <point x="237" y="121" type="line"/>
      <point x="237" y="178" type="line"/>
    </contour>
    <contour>
      <point x="237" y="178" type="line"/>
      <point x="237" y="178" type="line"/>
      <point x="237" y="121" type="line"/>
      <point x="294" y="121" type="line"/>
      <point x="294" y="178" type="line"/>
    </contour>
    <contour>
      <point x="179" y="121" type="line"/>
      <point x="179" y="121" type="line"/>
      <point x="179" y="63" type="line"/>
      <point x="237" y="63" type="line"/>
      <point x="237" y="121" type="line"/>
    </contour>
    <contour>
      <point x="237" y="121" type="line"/>
      <point x="237" y="121" type="line"/>
      <point x="237" y="63" type="line"/>
      <point x="294" y="63" type="line"/>
      <point x="294" y="121" type="line"/>
    </contour>
    <contour>
      <point x="179" y="63" type="line"/>
      <point x="179" y="63" type="line"/>
      <point x="179" y="5" type="line"/>
      <point x="237" y="5" type="line"/>
      <point x="237" y="63" type="line"/>
    </contour>
    <contour>
      <point x="237" y="63" type="line"/>
      <point x="237" y="63" type="line"/>
      <point x="237" y="5" type="line"/>
      <point x="294" y="5" type="line"/>
      <point x="294" y="63" type="line"/>
    </contour>
  </outline>
</glyph>
<glyph name="eight" format="2">
  <advance width="557"/>
  <unicode hex="0038"/>
  <outline>
    <contour>
      <point x="179" y="697" type="line"/>
      <point x="179" y="697" type="line"/>
      <point x="179" y="639" type="line"/>
      <point x="237" y="639" type="line"/>
      <point x="237" y="697" type="line"/>
    </contour>
    <contour>
      <point x="237" y="697" type="line"/>
      <point x="237" y="697" type="line"/>
      <point x="237" y="639" type="line"/>
      <point x="295" y="639" type="line"/>
      <point x="295" y="697" type="line"/>
    </contour>
    <contour>
      <point x="295" y="697" type="line"/>
      <point x="295" y="697" type="line"/>
      <point x="295" y="639" type="line"/>
      <point x="353" y="639" type="line"/>
      <point x="353" y="697" type="line"/>
    </contour>
    <contour>
      <point x="353" y="697" type="line"/>
      <point x="353" y="697" type="line"/>
      <point x="353" y="639" type="line"/>
      <point x="410" y="639" type="line"/>
      <point x="410" y="697" type="line"/>
    </contour>
    <contour>
      <point x="121" y="639" type="line"/>
      <point x="121" y="639" type="line"/>
      <point x="121" y="582" type="line"/>
      <point x="179" y="582" type="line"/>
      <point x="179" y="639" type="line"/>
    </contour>
    <contour>
      <point x="179" y="639" type="line"/>
      <point x="179" y="639" type="line"/>
      <point x="179" y="582" type="line"/>
      <point x="237" y="582" type="line"/>
      <point x="237" y="639" type="line"/>
    </contour>
    <contour>
      <point x="353" y="639" type="line"/>
      <point x="353" y="639" type="line"/>
      <point x="353" y="582" type="line"/>
      <point x="410" y="582" type="line"/>
      <point x="410" y="639" type="line"/>
    </contour>
    <contour>
      <point x="410" y="639" type="line"/>
      <point x="410" y="639" type="line"/>
      <point x="410" y="582" type="line"/>
      <point x="468" y="582" type="line"/>
      <point x="468" y="639" type="line"/>
    </contour>
    <contour>
      <point x="63" y="582" type="line"/>
      <point x="63" y="582" type="line"/>
      <point x="63" y="524" type="line"/>
      <point x="121" y="524" type="line"/>
      <point x="121" y="582" type="line"/>
    </contour>
    <contour>
      <point x="121" y="582" type="line"/>
      <point x="121" y="582" type="line"/>
      <point x="121" y="524" type="line"/>
      <point x="179" y="524" type="line"/>
      <point x="179" y="582" type="line"/>
    </contour>
    <contour>
      <point x="410" y="582" type="line"/>
      <point x="410" y="582" type="line"/>
      <point x="410" y="524" type="line"/>
      <point x="468" y="524" type="line"/>
      <point x="468" y="582" type="line"/>
    </contour>
    <contour>
      <point x="468" y="582" type="line"/>
      <point x="468" y="582" type="line"/>
      <point x="468" y="524" type="line"/>
      <point x="526" y="524" type="line"/>
      <point x="526" y="582" type="line"/>
    </contour>
    <contour>
      <point x="63" y="524" type="line"/>
      <point x="63" y="524" type="line"/>
      <point x="63" y="466" type="line"/>
      <point x="121" y="466" type="line"/>
      <point x="121" y="524" type="line"/>
    </contour>
    <contour>
      <point x="121" y="524" type="line"/>
      <point x="121" y="524" type="line"/>
      <point x="121" y="466" type="line"/>
      <point x="179" y="466" type="line"/>
      <point x="179" y="524" type="line"/>
    </contour>
    <contour>
      <point x="410" y="524" type="line"/>
      <point x="410" y="524" type="line"/>
      <point x="410" y="466" type="line"/>
      <point x="468" y="466" type="line"/>
      <point x="468" y="524" type="line"/>
    </contour>
    <contour>
      <point x="468" y="524" type="line"/>
      <point x="468" y="524" type="line"/>
      <point x="468" y="466" type="line"/>
      <point x="526" y="466" type="line"/>
      <point x="526" y="524" type="line"/>
    </contour>
    <contour>
      <point x="121" y="466" type="line"/>
      <point x="121" y="466" type="line"/>
      <point x="121" y="408" type="line"/>
      <point x="179" y="408" type="line"/>
      <point x="179" y="466" type="line"/>
    </contour>
    <contour>
      <point x="179" y="466" type="line"/>
      <point x="179" y="466" type="line"/>
      <point x="179" y="408" type="line"/>
      <point x="237" y="408" type="line"/>
      <point x="237" y="466" type="line"/>
    </contour>
    <contour>
      <point x="353" y="466" type="line"/>
      <point x="353" y="466" type="line"/>
      <point x="353" y="408" type="line"/>
      <point x="410" y="408" type="line"/>
      <point x="410" y="466" type="line"/>
    </contour>
    <contour>
      <point x="410" y="466" type="line"/>
      <point x="410" y="466" type="line"/>
      <point x="410" y="408" type="line"/>
      <point x="468" y="408" type="line"/>
      <point x="468" y="466" type="line"/>
    </contour>
    <contour>
      <point x="179" y="408" type="line"/>
      <point x="179" y="408" type="line"/>
      <point x="179" y="350" type="line"/>
      <point x="237" y="350" type="line"/>
      <point x="237" y="408" type="line"/>
    </contour>
    <contour>
      <point x="237" y="408" type="line"/>
      <point x="237" y="408" type="line"/>
      <point x="237" y="350" type="line"/>
      <point x="295" y="350" type="line"/>
      <point x="295" y="408" type="line"/>
    </contour>
    <contour>
      <point x="295" y="408" type="line"/>
      <point x="295" y="408" type="line"/>
      <point x="295" y="350" type="line"/>
      <point x="353" y="350" type="line"/>
      <point x="353" y="408" type="line"/>
    </contour>
    <contour>
      <point x="353" y="408" type="line"/>
      <point x="353" y="408" type="line"/>
      <point x="353" y="350" type="line"/>
      <point x="410" y="350" type="line"/>
      <point x="410" y="408" type="line"/>
    </contour>
    <contour>
      <point x="121" y="350" type="line"/>
      <point x="121" y="350" type="line"/>
      <point x="121" y="292" type="line"/>
      <point x="179" y="292" type="line"/>
      <point x="179" y="350" type="line"/>
    </contour>
    <contour>
      <point x="179" y="350" type="line"/>
      <point x="179" y="350" type="line"/>
      <point x="179" y="292" type="line"/>
      <point x="237" y="292" type="line"/>
      <point x="237" y="350" type="line"/>
    </contour>
    <contour>
      <point x="353" y="350" type="line"/>
      <point x="353" y="350" type="line"/>
      <point x="353" y="292" type="line"/>
      <point x="410" y="292" type="line"/>
      <point x="410" y="350" type="line"/>
    </contour>
    <contour>
      <point x="410" y="350" type="line"/>
      <point x="410" y="350" type="line"/>
      <point x="410" y="292" type="line"/>
      <point x="468" y="292" type="line"/>
      <point x="468" y="350" type="line"/>
    </contour>
    <contour>
      <point x="63" y="292" type="line"/>
      <point x="63" y="292" type="line"/>
      <point x="63" y="235" type="line"/>
      <point x="121" y="235" type="line"/>
      <point x="121" y="292" type="line"/>
    </contour>
    <contour>
      <point x="121" y="292" type="line"/>
      <point x="121" y="292" type="line"/>
      <point x="121" y="235" type="line"/>
      <point x="179" y="235" type="line"/>
      <point x="179" y="292" type="line"/>
    </contour>
    <contour>
      <point x="410" y="292" type="line"/>
      <point x="410" y="292" type="line"/>
      <point x="410" y="235" type="line"/>
      <point x="468" y="235" type="line"/>
      <point x="468" y="292" type="line"/>
    </contour>
    <contour>
      <point x="468" y="292" type="line"/>
      <point x="468" y="292" type="line"/>
      <point x="468" y="235" type="line"/>
      <point x="526" y="235" type="line"/>
      <point x="526" y="292" type="line"/>
    </contour>
    <contour>
      <point x="63" y="235" type="line"/>
      <point x="63" y="235" type="line"/>
      <point x="63" y="177" type="line"/>
      <point x="121" y="177" type="line"/>
      <point x="121" y="235" type="line"/>
    </contour>
    <contour>
      <point x="121" y="235" type="line"/>
      <point x="121" y="235" type="line"/>
      <point x="121" y="177" type="line"/>
      <point x="179" y="177" type="line"/>
      <point x="179" y="235" type="line"/>
    </contour>
    <contour>
      <point x="410" y="235" type="line"/>
      <point x="410" y="235" type="line"/>
      <point x="410" y="177" type="line"/>
      <point x="468" y="177" type="line"/>
      <point x="468" y="235" type="line"/>
    </contour>
    <contour>
      <point x="468" y="235" type="line"/>
      <point x="468" y="235" type="line"/>
      <point x="468" y="177" type="line"/>
      <point x="526" y="177" type="line"/>
      <point x="526" y="235" type="line"/>
    </contour>
    <contour>
      <point x="63" y="177" type="line"/>
      <point x="63" y="177" type="line"/>
      <point x="63" y="119" type="line"/>
      <point x="121" y="119" type="line"/>
      <point x="121" y="177" type="line"/>
    </contour>
    <contour>
      <point x="121" y="177" type="line"/>
      <point x="121" y="177" type="line"/>
      <point x="121" y="119" type="line"/>
      <point x="179" y="119" type="line"/>
      <point x="179" y="177" type="line"/>
    </contour>
    <contour>
      <point x="410" y="177" type="line"/>
      <point x="410" y="177" type="line"/>
      <point x="410" y="119" type="line"/>
      <point x="468" y="119" type="line"/>
      <point x="468" y="177" type="line"/>
    </contour>
    <contour>
      <point x="468" y="177" type="line"/>
      <point x="468" y="177" type="line"/>
      <point x="468" y="119" type="line"/>
      <point x="526" y="119" type="line"/>
      <point x="526" y="177" type="line"/>
    </contour>
    <contour>
      <point x="121" y="119" type="line"/>
      <point x="121" y="119" type="line"/>
      <point x="121" y="61" type="line"/>
      <point x="179" y="61" type="line"/>
      <point x="179" y="119" type="line"/>
    </contour>
    <contour>
      <point x="179" y="119" type="line"/>
      <point x="179" y="119" type="line"/>
      <point x="179" y="61" type="line"/>
      <point x="237" y="61" type="line"/>
      <point x="237" y="119" type="line"/>
    </contour>
    <contour>
      <point x="353" y="119" type="line"/>
      <point x="353" y="119" type="line"/>
      <point x="353" y="61" type="line"/>
      <point x="410" y="61" type="line"/>
      <point x="410" y="119" type="line"/>
    </contour>
    <contour>
      <point x="410" y="119" type="line"/>
      <point x="410" y="119" type="line"/>
      <point x="410" y="61" type="line"/>
      <point x="468" y="61" type="line"/>
      <point x="468" y="119" type="line"/>
    </contour>
    <contour>
      <point x="179" y="61" type="line"/>
      <point x="179" y="61" type="line"/>
      <point x="179" y="3" type="line"/>
      <point x="237" y="3" type="line"/>
      <point x="237" y="61" type="line"/>
    </contour>
    <contour>
      <point x="237" y="61" type="line"/>
      <point x="237" y="61" type="line"/>
      <point x="237" y="3" type="line"/>
      <point x="295" y="3" type="line"/>
      <point x="295" y="61" type="line"/>
    </contour>
    <contour>
      <point x="295" y="61" type="line"/>
      <point x="295" y="61" type="line"/>
      <point x="295" y="3" type="line"/>
      <point x="353" y="3" type="line"/>
      <point x="353" y="61" type="line"/>
    </contour>
    <contour>
      <point x="353" y="61" type="line"/>
      <point x="353" y="61" type="line"/>
      <point x="353" y="3" type="line"/>
      <point x="410" y="3" type="line"/>
      <point x="410" y="61" type="line"/>
    </contour>
  </outline>
</glyph>
